<?xml version="1.0" encoding="UTF-8"?>
<!-- Generator: visioncortex VTracer 0.6.3 -->
<svg version="1.1" xmlns="http://www.w3.org/2000/svg" width="1280" height="1280">
<path d="M0 0 C0.86 -0 1.72 -0.01 2.6 -0.01 C4 -0.01 4 -0.01 5.42 -0 C6.85 -0 6.85 -0 8.3 -0.01 C10.32 -0.01 12.33 -0.01 14.35 -0 C17.44 0 20.54 -0 23.63 -0.01 C25.58 -0.01 27.53 -0.01 29.49 -0 C30.42 -0.01 31.35 -0.01 32.31 -0.01 C33.17 -0.01 34.03 -0 34.91 0 C36.05 0 36.05 0 37.21 0 C38.96 0.13 38.96 0.13 39.96 1.13 C42.01 1.55 44.08 1.94 46.14 2.32 C53.98 3.93 60.7 6.8 67.96 10.13 C69.62 10.81 71.28 11.48 72.96 12.13 C72.96 12.79 72.96 13.45 72.96 14.13 C73.62 14.19 74.29 14.26 74.98 14.32 C79.1 15.44 82.11 17.65 85.58 20.07 C86.25 20.52 86.92 20.98 87.6 21.45 C88.84 22.29 90.08 23.15 91.32 24 C92.85 25.06 94.4 26.09 95.96 27.13 C95.96 27.79 95.96 28.45 95.96 29.13 C96.53 29.4 97.11 29.67 97.7 29.95 C99.99 31.15 101.95 32.5 104.02 34.07 C104.69 34.57 105.36 35.07 106.05 35.59 C107.83 37.03 109.45 38.41 110.96 40.13 C110.96 40.79 110.96 41.45 110.96 42.13 C111.91 42.53 111.91 42.53 112.89 42.94 C114.96 44.13 114.96 44.13 115.96 47.13 C116.62 47.13 117.28 47.13 117.96 47.13 C119.47 48.63 119.47 48.63 121.21 50.69 C122.13 51.78 122.13 51.78 123.07 52.89 C123.69 53.63 124.31 54.37 124.96 55.13 C125.84 56.13 125.84 56.13 126.75 57.15 C127.56 58.07 127.56 58.07 128.39 59 C128.89 59.56 129.38 60.11 129.89 60.68 C130.96 62.13 130.96 62.13 130.96 64.13 C131.62 64.13 132.28 64.13 132.96 64.13 C134.4 65.86 135.76 67.67 137.08 69.5 C137.8 70.5 138.53 71.5 139.28 72.53 C140.96 75.13 140.96 75.13 140.96 77.13 C141.62 77.13 142.28 77.13 142.96 77.13 C144.65 79.4 144.65 79.4 146.52 82.38 C147.14 83.35 147.76 84.33 148.4 85.33 C149.71 87.7 150.5 89.49 150.96 92.13 C151.62 92.13 152.28 92.13 152.96 92.13 C155.26 98.22 155.52 103.77 153.96 110.13 C151.48 114.91 148.07 119.2 142.96 121.13 C136.48 122.32 131.13 122.46 124.96 120.13 C124.96 119.47 124.96 118.81 124.96 118.13 C124.24 117.95 123.52 117.77 122.78 117.59 C118.76 115.51 117.1 112.5 114.71 108.75 C113.75 107.3 112.79 105.86 111.83 104.41 C111.35 103.69 110.87 102.97 110.38 102.23 C107.61 98.15 104.56 94.28 101.54 90.39 C99.96 88.13 99.96 88.13 99.96 86.13 C98.97 85.8 97.98 85.47 96.96 85.13 C96.96 84.47 96.96 83.81 96.96 83.13 C96.3 83.13 95.64 83.13 94.96 83.13 C93.62 81.77 93.62 81.77 92.02 79.82 C88.87 76.11 85.57 72.63 82.14 69.19 C81.66 68.71 81.18 68.22 80.69 67.72 C78.07 65.1 78.07 65.1 74.96 63.13 C74.96 62.47 74.96 61.81 74.96 61.13 C74.44 60.9 73.93 60.67 73.4 60.43 C70.74 59.01 68.3 57.36 65.83 55.65 C55.35 48.43 45.46 43.81 32.96 41.13 C31.65 40.82 31.65 40.82 30.33 40.5 C15.85 37.24 1.32 39.89 -12.04 46.13 C-13.39 46.71 -13.39 46.71 -14.76 47.3 C-23.51 51.3 -30.81 56.95 -38.31 62.9 C-40.15 64.2 -42.01 65.17 -44.04 66.13 C-44.04 66.79 -44.04 67.45 -44.04 68.13 C-45.72 69.75 -45.72 69.75 -47.92 71.57 C-50.51 73.71 -52.16 75.3 -54.04 78.13 C-54.7 78.13 -55.36 78.13 -56.04 78.13 C-56.28 78.67 -56.51 79.21 -56.75 79.77 C-58.42 82.8 -60.54 85.2 -62.79 87.82 C-66.54 92.2 -69.88 96.64 -72.89 101.58 C-73.27 102.09 -73.65 102.6 -74.04 103.13 C-74.7 103.13 -75.36 103.13 -76.04 103.13 C-76.16 103.71 -76.28 104.29 -76.41 104.89 C-77.51 108.78 -79.84 111.98 -81.98 115.38 C-82.44 116.12 -82.89 116.87 -83.36 117.64 C-83.8 118.34 -84.24 119.04 -84.7 119.77 C-85.3 120.74 -85.3 120.74 -85.92 121.72 C-86.29 122.19 -86.66 122.65 -87.04 123.13 C-87.7 123.13 -88.36 123.13 -89.04 123.13 C-89.15 123.66 -89.25 124.2 -89.36 124.75 C-90.23 127.78 -91.56 130.43 -92.98 133.25 C-93.51 134.31 -94.03 135.36 -94.57 136.45 C-96.04 139.13 -96.04 139.13 -98.04 141.13 C-99.09 143.45 -100.08 145.77 -101.04 148.13 C-101.6 149.44 -102.17 150.76 -102.73 152.07 C-103.17 153.08 -103.6 154.09 -104.04 155.13 C-104.7 155.13 -105.36 155.13 -106.04 155.13 C-106.21 156.18 -106.21 156.18 -106.37 157.25 C-107.13 160.51 -108.35 163.23 -109.79 166.25 C-110.6 167.97 -110.6 167.97 -111.43 169.72 C-111.96 170.85 -112.5 171.97 -113.04 173.13 C-116.03 179.48 -118.74 185.82 -121.08 192.44 C-122.91 197.53 -124.96 202.53 -127.04 207.52 C-129.41 213.25 -131.27 219.04 -133.04 224.98 C-133.92 227.75 -134.92 230.39 -136.04 233.07 C-138.19 238.21 -139.62 243.5 -141.1 248.87 C-141.85 251.47 -142.67 253.93 -143.67 256.44 C-144.93 259.82 -145.72 262.98 -146.44 266.5 C-147.47 270.99 -148.83 275.38 -150.14 279.8 C-150.98 282.9 -151.58 285.95 -152.04 289.13 C-151.05 289.23 -150.06 289.34 -149.04 289.44 C-145.64 289.93 -142.67 290.97 -139.47 292.25 C-136.39 293.37 -133.27 294.2 -130.11 295.07 C-125.28 296.41 -120.88 297.99 -116.37 300.13 C-112.52 301.78 -108.52 302.87 -104.51 304.06 C-96.13 306.64 -87.92 309.72 -79.79 313.04 C-76.27 314.44 -72.72 315.75 -69.17 317.07 C-62.39 319.59 -55.7 322.3 -49.04 325.13 C-47.05 325.96 -45.05 326.8 -43.04 327.63 C-42.05 328.04 -41.06 328.46 -40.04 328.88 C-38.06 329.71 -36.07 330.53 -34.08 331.34 C-27.68 333.98 -21.39 336.8 -15.12 339.73 C-12.51 340.92 -9.91 341.99 -7.23 343 C-4.09 344.21 -1.12 345.58 1.85 347.15 C2.55 347.52 3.24 347.88 3.96 348.26 C5.34 348.99 6.71 349.73 8.07 350.49 C12.97 353.08 16.41 353.71 21.96 353.13 C25.04 352.03 25.04 352.03 27.83 350.38 C31.47 348.43 35.03 346.61 38.89 345.13 C46.03 342.37 52.91 339.03 59.84 335.77 C65.27 333.26 70.72 331.08 76.36 329.09 C78.68 328.23 80.9 327.29 83.14 326.25 C88.02 324.02 93.04 322.2 98.08 320.35 C101.72 318.99 105.3 317.58 108.83 315.94 C112.63 314.19 116.48 313.05 120.49 311.91 C122.88 311.15 125.06 310.24 127.33 309.19 C131.77 307.13 136.32 305.64 140.98 304.13 C143.71 303.21 146.35 302.18 149.02 301.07 C153.35 299.29 157.71 298.08 162.23 296.91 C165.76 295.9 169.08 294.52 172.47 293.11 C177.9 290.96 183.08 289.13 188.96 289.13 C188.49 285.47 187.67 282.16 186.46 278.69 C185.12 274.84 184.53 271.17 183.96 267.13 C183.53 265.73 183.08 264.34 182.61 262.96 C182.34 262.16 182.07 261.37 181.79 260.56 C181.51 259.75 181.24 258.95 180.96 258.13 C180.47 256.68 179.98 255.22 179.49 253.77 C179.25 253.05 179.01 252.34 178.76 251.6 C176.75 245.59 174.77 239.58 172.96 233.5 C171.03 227.14 168.7 220.96 166.32 214.76 C165.51 212.59 164.72 210.41 163.99 208.21 C162.63 204.17 161.08 200.22 159.52 196.25 C158.62 193.96 157.72 191.66 156.82 189.36 C156.25 187.88 155.67 186.41 155.08 184.94 C152.76 179.01 151.68 174.12 153.65 167.96 C156.23 162.2 159.76 158.99 165.21 155.82 C171.93 154.14 178.15 154.36 184.21 157.88 C189.92 161.96 191.76 166.69 193.93 173.15 C194.96 176.15 196.14 179.03 197.39 181.94 C199.7 187.39 201.71 192.92 203.65 198.51 C204.67 201.35 205.75 204.13 206.89 206.92 C208.94 212.01 210.74 217.17 212.46 222.38 C212.91 223.76 212.91 223.76 213.38 225.16 C215.77 232.44 217.94 239.74 219.96 247.13 C223.54 261.96 223.54 261.96 228.96 276.13 C239.6 273.76 250.14 271.11 260.62 268.07 C263.25 267.33 265.83 266.7 268.52 266.19 C272.7 265.39 276.86 264.49 281.02 263.57 C285.69 262.55 290.25 261.8 295 261.38 C297.27 261.14 297.27 261.14 300.64 260.07 C303.92 259.14 306.57 258.96 309.96 259.13 C310.08 258.27 310.21 257.41 310.35 256.52 C312.03 247.12 315.36 238.47 319.96 230.13 C320.62 230.13 321.28 230.13 321.96 230.13 C322.11 229.27 322.11 229.27 322.26 228.4 C326.11 215.78 341.98 206.75 352.56 200.62 C370.05 191.36 391.61 190.87 410.43 196.09 C433.29 203.61 448.39 219.12 459.52 239.97 C460.87 242.93 461.6 245.58 462.27 248.75 C463.06 251.75 463.37 252.78 466.07 254.38 C468.71 255.21 471.22 255.74 473.96 256.13 C474.68 256.23 475.4 256.34 476.14 256.44 C478.08 256.68 480.02 256.91 481.96 257.13 C485.92 258.12 489.33 259.32 492.96 261.13 C494.56 261.6 496.16 262.06 497.77 262.5 C505.33 264.67 512.23 267.04 518.96 271.13 C520.02 271.57 521.08 272.02 522.18 272.47 C541.21 280.5 560.04 296.66 570.96 314.13 C570.96 315.12 570.96 316.11 570.96 317.13 C571.62 317.13 572.28 317.13 572.96 317.13 C573.29 318.78 573.62 320.43 573.96 322.13 C574.62 322.13 575.28 322.13 575.96 322.13 C579.2 328.89 581.91 335.64 584.16 342.79 C584.74 345.06 584.74 345.06 585.96 346.13 C592.82 372.23 592.53 399.19 584.96 425.13 C584.54 426.7 584.12 428.27 583.71 429.84 C579.2 446.74 572.63 462.29 564.62 477.81 C563.24 480.55 562.03 483.26 560.96 486.13 C560.3 486.13 559.64 486.13 558.96 486.13 C558.85 486.87 558.74 487.6 558.63 488.36 C557.91 491.32 556.91 492.99 555.14 495.44 C552.3 499.53 550.08 503.63 547.96 508.13 C547.3 508.13 546.64 508.13 545.96 508.13 C545.85 508.69 545.75 509.25 545.64 509.82 C544.81 512.6 543.54 514.63 541.96 517.07 C541.33 518.02 540.71 518.98 540.07 519.97 C537.39 523.97 534.66 527.94 531.89 531.89 C529.76 534.91 529.76 534.91 527.96 538.13 C527.3 538.13 526.64 538.13 525.96 538.13 C525.65 539.12 525.65 539.12 525.33 540.13 C523.46 544.2 520.98 547.82 517.96 551.13 C517.3 551.13 516.64 551.13 515.96 551.13 C515.62 552.18 515.62 552.18 515.27 553.24 C513.67 556.76 511.41 559.43 508.89 562.32 C505.59 565.99 505.59 565.99 502.96 570.13 C502.3 570.13 501.64 570.13 500.96 570.13 C500.49 571.06 500.49 571.06 500.02 572 C499.33 573.38 498.64 574.75 497.96 576.13 C497.3 576.13 496.64 576.13 495.96 576.13 C495.58 576.96 495.58 576.96 495.21 577.8 C493.71 580.58 491.92 582.91 489.96 585.38 C489.25 586.27 488.55 587.16 487.83 588.08 C487.21 588.76 486.59 589.43 485.96 590.13 C485.3 590.13 484.64 590.13 483.96 590.13 C483.63 591.12 483.3 592.11 482.96 593.13 C482.3 593.13 481.64 593.13 480.96 593.13 C480.55 594 480.55 594 480.14 594.88 C478.93 597.18 477.65 599.15 475.96 601.13 C475.3 601.13 474.64 601.13 473.96 601.13 C473.7 601.7 473.44 602.27 473.17 602.86 C471.84 605.34 470.3 607.26 468.46 609.38 C467.54 610.44 467.54 610.44 466.61 611.52 C464.96 613.13 464.96 613.13 462.96 613.13 C462.72 613.69 462.49 614.25 462.25 614.83 C460.62 617.73 458.59 619.66 456.2 621.97 C455.26 622.89 454.33 623.81 453.36 624.75 C451.88 626.19 450.39 627.64 448.89 629.08 C447.45 630.47 446.01 631.88 444.58 633.29 C443.71 634.12 442.85 634.95 441.96 635.81 C440.03 638.05 439.31 639.24 438.96 642.13 C439.62 642.13 440.28 642.13 440.96 642.13 C442.22 643.42 442.22 643.42 443.77 645.32 C447.79 650.09 452.2 654.41 456.69 658.74 C458.15 660.16 459.56 661.64 460.96 663.13 C460.96 663.79 460.96 664.45 460.96 665.13 C461.62 665.13 462.28 665.13 462.96 665.13 C464.46 666.59 464.46 666.59 466.08 668.5 C466.89 669.44 466.89 669.44 467.71 670.4 C468.96 672.13 468.96 672.13 468.96 674.13 C469.62 674.13 470.28 674.13 470.96 674.13 C472.37 675.53 472.37 675.53 474.02 677.5 C477.54 681.66 481.18 685.7 484.84 689.73 C490.96 696.66 490.96 696.66 490.96 699.13 C491.62 699.13 492.28 699.13 492.96 699.13 C494.76 701.24 496.46 703.36 498.14 705.57 C498.63 706.2 499.12 706.84 499.63 707.49 C500.61 708.77 501.59 710.05 502.58 711.34 C504.94 714.41 507.38 717.43 509.81 720.46 C510.96 722.13 510.96 722.13 510.96 724.13 C511.62 724.13 512.28 724.13 512.96 724.13 C514.3 725.67 514.3 725.67 515.82 727.82 C516.38 728.6 516.93 729.38 517.51 730.19 C518.09 731.01 518.67 731.84 519.27 732.69 C519.84 733.49 520.41 734.29 520.99 735.12 C522.12 736.7 523.24 738.29 524.36 739.87 C525.82 741.94 527.29 744 528.76 746.05 C533.78 753.08 535 758.53 533.96 767.13 C532.71 770.83 531.07 773.42 527.71 775.57 C527.13 775.75 526.55 775.94 525.96 776.13 C525.96 776.79 525.96 777.45 525.96 778.13 C520.62 780.85 515.95 782.36 509.96 781.13 C506.36 779.49 503.04 777.61 499.96 775.13 C499.96 774.47 499.96 773.81 499.96 773.13 C499.3 773.13 498.64 773.13 497.96 773.13 C496.39 771.14 494.95 769.15 493.52 767.07 C492.61 765.78 491.71 764.49 490.81 763.2 C490.34 762.53 489.87 761.86 489.39 761.17 C482.61 751.52 475.51 742.19 467.96 733.13 C466.43 731.28 464.91 729.43 463.39 727.57 C462.73 726.76 462.07 725.96 461.39 725.13 C459.96 723.13 459.96 723.13 459.96 721.13 C458.97 720.8 457.98 720.47 456.96 720.13 C456.96 719.47 456.96 718.81 456.96 718.13 C456.3 718.13 455.64 718.13 454.96 718.13 C453.44 716.43 451.99 714.67 450.58 712.88 C448.36 710.08 446.22 707.39 443.67 704.9 C441.96 703.13 441.96 703.13 441.96 701.13 C441.3 701.13 440.64 701.13 439.96 701.13 C434.96 695.65 434.96 695.65 434.96 693.13 C433.97 692.8 432.98 692.47 431.96 692.13 C431.96 691.47 431.96 690.81 431.96 690.13 C431.3 690.13 430.64 690.13 429.96 690.13 C429.96 689.47 429.96 688.81 429.96 688.13 C429.3 688.13 428.64 688.13 427.96 688.13 C426.33 686.75 426.33 686.75 424.96 685.13 C424.96 684.47 424.96 683.81 424.96 683.13 C424.3 683.13 423.64 683.13 422.96 683.13 C421.44 681.59 421.44 681.59 419.71 679.5 C416.61 675.86 413.38 672.47 409.96 669.13 C407.98 669.79 406 670.45 403.96 671.13 C403.96 671.79 403.96 672.45 403.96 673.13 C398.48 678.13 398.48 678.13 395.96 678.13 C395.63 679.12 395.3 680.11 394.96 681.13 C394.3 681.13 393.64 681.13 392.96 681.13 C392.96 681.79 392.96 682.45 392.96 683.13 C391.24 684.71 389.46 686.22 387.64 687.69 C386.66 688.5 385.67 689.3 384.65 690.13 C381.96 692.13 381.96 692.13 378.96 693.13 C378.63 694.12 378.3 695.11 377.96 696.13 C377.3 696.13 376.64 696.13 375.96 696.13 C375.96 696.79 375.96 697.45 375.96 698.13 C374.09 699.82 374.09 699.82 371.64 701.69 C370.84 702.31 370.04 702.93 369.22 703.57 C366.96 705.13 366.96 705.13 363.96 706.13 C363.96 706.79 363.96 707.45 363.96 708.13 C360.49 711.13 360.49 711.13 357.96 711.13 C357.96 711.79 357.96 712.45 357.96 713.13 C356.48 714.47 356.48 714.47 354.33 716.07 C350.17 719.21 346.05 722.4 341.96 725.63 C340.75 726.57 339.55 727.52 338.35 728.46 C336.26 730.1 334.19 731.74 332.13 733.39 C330.93 734.34 330.93 734.34 329.71 735.32 C329.02 735.87 328.33 736.42 327.63 736.98 C325.96 738.13 325.96 738.13 323.96 738.13 C323.96 738.79 323.96 739.45 323.96 740.13 C322.22 741.57 320.42 742.94 318.58 744.25 C317.58 744.98 316.58 745.7 315.56 746.45 C312.96 748.13 312.96 748.13 310.96 748.13 C310.96 748.79 310.96 749.45 310.96 750.13 C309.57 751.36 309.57 751.36 307.62 752.75 C306.53 753.53 306.53 753.53 305.42 754.32 C304.62 754.88 303.83 755.43 303.02 756 C302.21 756.58 301.41 757.15 300.58 757.74 C298.89 758.93 297.2 760.13 295.51 761.32 C293.03 763.08 290.55 764.85 288.08 766.62 C286.56 767.71 285.04 768.79 283.52 769.88 C282.8 770.39 282.09 770.91 281.35 771.43 C280.35 772.14 280.35 772.14 279.33 772.86 C278.75 773.28 278.17 773.69 277.57 774.12 C275.96 775.13 275.96 775.13 272.96 776.13 C272.96 776.79 272.96 777.45 272.96 778.13 C268.57 781.13 268.57 781.13 265.96 781.13 C265.83 782.51 265.83 782.51 265.7 783.91 C265.38 787.33 265.05 790.74 264.73 794.15 C264.59 795.63 264.45 797.11 264.31 798.58 C264.11 800.71 263.91 802.83 263.71 804.96 C263.59 806.24 263.47 807.51 263.34 808.83 C263.04 811.38 262.61 813.66 261.96 816.13 C261.7 819.54 261.51 822.95 261.35 826.37 C261.18 829.5 260.95 832.14 259.96 835.13 C259.76 836.57 259.59 838.02 259.46 839.47 C259.37 840.31 259.29 841.14 259.21 842 C259.12 842.87 259.04 843.74 258.96 844.63 C258.79 846.35 258.63 848.07 258.46 849.79 C258.38 850.55 258.31 851.31 258.24 852.09 C257.96 854.13 257.96 854.13 256.96 857.13 C256.78 858.94 256.64 860.75 256.52 862.57 C255.91 870.39 254.71 878.06 252.89 885.69 C251.91 889.9 251.57 894.06 251.23 898.36 C250.66 904.08 249.36 909.64 247.89 915.19 C246.98 918.73 246.59 922.21 246.23 925.84 C245.62 930.88 244.37 935.77 242.89 940.63 C241.93 944.22 241.51 947.62 241.2 951.31 C240.96 953.13 240.96 953.13 239.96 954.13 C239.72 955.81 239.54 957.5 239.39 959.19 C239.31 960.11 239.23 961.03 239.14 961.98 C239.08 962.69 239.02 963.4 238.96 964.13 C242.88 965.85 246.7 966.79 250.89 967.63 C254.28 968.31 257.53 968.98 260.79 970.1 C265 971.47 269.25 972.25 273.58 973.07 C279.23 974.16 284.83 975.29 290.39 976.75 C295.66 978.14 300.94 978.96 306.34 979.7 C308.96 980.13 308.96 980.13 310.96 981.13 C312.59 981.39 314.22 981.62 315.87 981.81 C316.86 981.94 317.85 982.06 318.87 982.19 C320.94 982.44 323.01 982.69 325.09 982.94 C329.68 983.51 334.18 984.12 338.68 985.19 C342.88 986.18 346.96 986.52 351.27 986.69 C358.47 987.01 358.47 987.01 360.93 987.63 C364.45 988.5 368.07 988.51 371.68 988.68 C372.56 988.73 373.43 988.77 374.34 988.81 C384.29 989.25 394.24 989.28 404.2 989.26 C407.35 989.25 410.49 989.26 413.64 989.27 C426.81 989.27 439.82 988.94 452.89 987.19 C454.08 987.04 455.26 986.89 456.48 986.73 C460.07 986.11 463.46 985.15 466.96 984.13 C469.29 983.79 471.62 983.46 473.96 983.13 C474.29 982.8 474.62 982.47 474.96 982.13 C476.44 981.97 476.44 981.97 477.96 981.82 C481.85 981.31 484.98 979.9 488.51 978.23 C491.09 977.07 493.7 976.16 496.39 975.25 C501.32 973.52 505.5 971.16 509.86 968.3 C511.96 967.13 511.96 967.13 514.96 967.13 C514.96 966.47 514.96 965.81 514.96 965.13 C518.15 962.81 521.37 960.78 524.96 959.13 C524.96 958.47 524.96 957.81 524.96 957.13 C527.33 954.5 527.33 954.5 529.96 952.13 C530.62 952.13 531.28 952.13 531.96 952.13 C532.18 951.61 532.41 951.1 532.64 950.57 C533.96 948.13 533.96 948.13 536.27 945.07 C542.35 936.61 545.02 927.25 546.96 917.13 C547.16 916.08 547.37 915.03 547.58 913.95 C549.35 904.25 549.09 895.48 547.64 885.75 C547.44 884.36 547.44 884.36 547.23 882.94 C546.24 876.5 544.95 870.34 542.96 864.13 C542.55 862.81 542.16 861.49 541.76 860.16 C541.33 858.74 540.89 857.31 540.46 855.88 C540.15 854.89 540.15 854.89 539.84 853.87 C538.84 850.66 537.76 847.71 536.33 844.64 C534.81 840.75 534.38 837.32 534.39 833.19 C534.39 832.49 534.4 831.79 534.4 831.07 C534.58 825.73 535.67 822.42 539.31 818.54 C543.82 814.68 548.82 811.93 554.89 812.32 C562.28 814.28 568.03 816.83 571.96 823.57 C575.95 832.28 579.18 841.11 581.28 850.47 C581.89 853.12 581.89 853.12 582.91 855.47 C593.74 883.05 592.32 920.06 580.96 947.13 C578.47 952.56 575.75 957.86 572.96 963.13 C572.3 963.13 571.64 963.13 570.96 963.13 C570.84 963.92 570.84 963.92 570.73 964.72 C569.64 968.12 567.63 970.81 565.58 973.69 C564.98 974.56 564.98 974.56 564.37 975.44 C560.37 981.15 560.37 981.15 557.96 983.13 C557.3 983.13 556.64 983.13 555.96 983.13 C555.55 984.09 555.55 984.09 555.14 985.07 C553.96 987.13 553.96 987.13 550.96 988.13 C550.96 988.79 550.96 989.45 550.96 990.13 C549.47 991.46 547.91 992.72 546.33 993.94 C543.48 996.15 540.71 998.35 538.02 1000.75 C533.63 1004.15 528.88 1006.59 523.96 1009.13 C522.84 1009.71 521.73 1010.29 520.59 1010.89 C509.93 1016.36 499.33 1020.83 487.61 1023.45 C484.93 1024.13 482.51 1025.09 479.96 1026.13 C443.51 1036.38 403.78 1034.13 366.53 1030.88 C365.82 1030.82 365.12 1030.76 364.38 1030.7 C361.15 1030.41 358.09 1029.98 354.96 1029.13 C352.79 1028.95 350.62 1028.81 348.46 1028.69 C340.47 1028.16 332.63 1027.17 324.89 1025.07 C320.86 1023.99 316.84 1023.73 312.69 1023.41 C307.56 1022.89 302.66 1021.64 297.72 1020.16 C292.92 1018.85 288.1 1018.06 283.18 1017.27 C278.93 1016.56 275.05 1015.53 270.96 1014.13 C268.73 1013.66 266.5 1013.22 264.27 1012.82 C255.78 1011.21 247.49 1008.97 239.15 1006.71 C235.76 1005.81 232.36 1004.97 228.96 1004.13 C226.75 1007.43 226.02 1010.46 225.14 1014.25 C223.75 1020.04 222.26 1025.79 220.58 1031.5 C220.38 1032.2 220.17 1032.89 219.96 1033.61 C218.82 1037.43 217.6 1041.22 216.3 1044.99 C215.89 1046.2 215.89 1046.2 215.47 1047.43 C214.93 1048.98 214.39 1050.53 213.83 1052.07 C212.4 1056.2 211.45 1059.69 211.96 1064.13 C213.88 1065.9 213.88 1065.9 215.96 1067.13 C215.96 1067.79 215.96 1068.45 215.96 1069.13 C216.95 1069.46 217.94 1069.79 218.96 1070.13 C218.96 1070.79 218.96 1071.45 218.96 1072.13 C219.62 1072.13 220.28 1072.13 220.96 1072.13 C223.86 1075.62 226.38 1079.4 228.96 1083.13 C229.68 1084.15 229.68 1084.15 230.42 1085.18 C241.22 1101.22 243.5 1122 240.54 1140.78 C238.66 1149.37 235.35 1157.52 230.96 1165.13 C230.3 1165.13 229.64 1165.13 228.96 1165.13 C228.86 1165.69 228.77 1166.25 228.67 1166.83 C227.78 1169.69 226.37 1171.53 224.52 1173.88 C223.9 1174.68 223.28 1175.48 222.65 1176.3 C222.09 1176.9 221.53 1177.51 220.96 1178.13 C220.3 1178.13 219.64 1178.13 218.96 1178.13 C218.63 1179.12 218.3 1180.11 217.96 1181.13 C217.3 1181.13 216.64 1181.13 215.96 1181.13 C215.96 1181.79 215.96 1182.45 215.96 1183.13 C206.77 1190.99 195.73 1198.07 183.96 1201.13 C182.25 1201.66 182.25 1201.66 180.51 1202.19 C174.7 1203.63 168.83 1203.38 162.89 1203.32 C161.75 1203.32 160.6 1203.32 159.42 1203.31 C153.84 1203.29 148.46 1203.13 142.96 1202.13 C142.44 1202.83 141.93 1203.54 141.41 1204.26 C135.7 1212.02 129.6 1219.35 123.26 1226.6 C122.03 1228.04 120.88 1229.54 119.72 1231.04 C118.85 1232.07 118.85 1232.07 117.96 1233.13 C117.3 1233.13 116.64 1233.13 115.96 1233.13 C115.63 1234.12 115.3 1235.11 114.96 1236.13 C114.3 1236.13 113.64 1236.13 112.96 1236.13 C112.96 1236.79 112.96 1237.45 112.96 1238.13 C112.3 1238.13 111.64 1238.13 110.96 1238.13 C110.96 1238.79 110.96 1239.45 110.96 1240.13 C109.38 1241.72 109.38 1241.72 107.27 1243.5 C106.54 1244.12 105.81 1244.74 105.06 1245.38 C104.37 1245.95 103.67 1246.53 102.96 1247.13 C102.01 1247.93 101.06 1248.74 100.08 1249.57 C97.96 1251.13 97.96 1251.13 95.96 1251.13 C95.96 1251.79 95.96 1252.45 95.96 1253.13 C91.57 1256.13 91.57 1256.13 88.96 1256.13 C88.96 1256.79 88.96 1257.45 88.96 1258.13 C87.97 1258.13 86.98 1258.13 85.96 1258.13 C85.96 1258.79 85.96 1259.45 85.96 1260.13 C83.87 1261.64 83.87 1261.64 81.14 1263.25 C80.25 1263.79 79.36 1264.33 78.44 1264.89 C75.96 1266.13 75.96 1266.13 72.96 1266.13 C72.96 1266.79 72.96 1267.45 72.96 1268.13 C70.58 1269.08 68.2 1270.03 65.82 1270.98 C63.97 1271.72 62.12 1272.47 60.28 1273.22 C53.48 1275.96 47.26 1278.13 39.96 1279.13 C39.63 1279.46 39.3 1279.79 38.96 1280.13 C37.61 1280.23 36.26 1280.26 34.91 1280.26 C33.62 1280.26 33.62 1280.26 32.31 1280.27 C30.91 1280.27 30.91 1280.27 29.49 1280.26 C28.54 1280.26 27.59 1280.26 26.61 1280.27 C24.59 1280.27 22.58 1280.26 20.56 1280.26 C17.47 1280.25 14.37 1280.26 11.28 1280.27 C9.33 1280.27 7.38 1280.26 5.42 1280.26 C4.03 1280.27 4.03 1280.27 2.6 1280.27 C1.74 1280.27 0.88 1280.26 0 1280.26 C-1.14 1280.26 -1.14 1280.26 -2.3 1280.26 C-4.04 1280.13 -4.04 1280.13 -5.04 1279.13 C-6.45 1278.83 -7.87 1278.56 -9.29 1278.32 C-25.29 1275.17 -39.04 1268.22 -53.04 1260.13 C-53.04 1259.47 -53.04 1258.81 -53.04 1258.13 C-53.58 1258.05 -54.12 1257.96 -54.67 1257.88 C-57.92 1256.85 -60.33 1255.16 -63.04 1253.13 C-63.04 1252.47 -63.04 1251.81 -63.04 1251.13 C-63.9 1250.73 -63.9 1250.73 -64.78 1250.32 C-67.12 1249.09 -69.17 1247.7 -71.29 1246.13 C-72.35 1245.36 -72.35 1245.36 -73.44 1244.57 C-73.97 1244.09 -74.5 1243.62 -75.04 1243.13 C-75.04 1242.47 -75.04 1241.81 -75.04 1241.13 C-76.03 1240.8 -77.02 1240.47 -78.04 1240.13 C-78.04 1239.47 -78.04 1238.81 -78.04 1238.13 C-78.7 1238.13 -79.36 1238.13 -80.04 1238.13 C-80.04 1237.47 -80.04 1236.81 -80.04 1236.13 C-81.03 1235.8 -82.02 1235.47 -83.04 1235.13 C-83.04 1234.47 -83.04 1233.81 -83.04 1233.13 C-83.7 1233.13 -84.36 1233.13 -85.04 1233.13 C-87.59 1230.66 -89.78 1227.86 -92.04 1225.13 C-92.78 1224.24 -93.52 1223.36 -94.28 1222.44 C-100.04 1215.4 -100.04 1215.4 -100.04 1213.13 C-100.7 1213.13 -101.36 1213.13 -102.04 1213.13 C-103.28 1211.69 -103.28 1211.69 -104.65 1209.7 C-105.38 1208.63 -105.38 1208.63 -106.13 1207.54 C-106.64 1206.79 -107.15 1206.03 -107.67 1205.25 C-108.44 1204.13 -108.44 1204.13 -109.23 1202.99 C-113.04 1197.39 -113.04 1197.39 -113.04 1195.13 C-113.7 1195.13 -114.36 1195.13 -115.04 1195.13 C-115.61 1194.13 -116.18 1193.13 -116.76 1192.09 C-118.59 1188.89 -120.48 1185.74 -122.39 1182.59 C-128.47 1172.58 -128.47 1172.58 -130.96 1167.34 C-132.22 1164.77 -133.59 1162.26 -134.97 1159.74 C-138.02 1154.12 -140.8 1148.59 -143.05 1142.59 C-144.23 1139.68 -145.62 1136.92 -147.04 1134.13 C-149.71 1128.89 -151.97 1123.62 -154.04 1118.13 C-157.4 1109.2 -157.4 1109.2 -161.17 1100.44 C-162.92 1096.6 -164.11 1092.71 -165.27 1088.65 C-166.04 1086.13 -166.97 1083.75 -167.98 1081.32 C-169.98 1076.47 -171.53 1071.53 -173.02 1066.5 C-174.05 1063.13 -175.15 1059.78 -176.27 1056.44 C-180.37 1044.22 -183.99 1031.94 -187.13 1019.43 C-187.36 1018.49 -187.6 1017.56 -187.85 1016.59 C-188.16 1015.33 -188.16 1015.33 -188.48 1014.05 C-188.88 1012.14 -188.88 1012.14 -190.04 1011.13 C-190.41 1008.8 -190.75 1006.47 -191.04 1004.13 C-196.68 1005.34 -202.27 1006.67 -207.86 1008.07 C-208.55 1008.24 -209.24 1008.41 -209.95 1008.59 C-213.1 1009.38 -216.25 1010.18 -219.39 1010.98 C-224.72 1012.34 -230.03 1013.56 -235.42 1014.6 C-238.44 1015.21 -241.43 1015.92 -244.42 1016.63 C-249.53 1017.82 -254.63 1018.78 -259.81 1019.59 C-262.89 1020.1 -265.96 1020.69 -269.03 1021.29 C-275.19 1022.49 -281.28 1023.42 -287.55 1023.89 C-290.02 1024.13 -292.37 1024.55 -294.79 1025.07 C-299.08 1025.98 -303.39 1026.66 -307.73 1027.25 C-308.95 1027.42 -310.17 1027.59 -311.43 1027.76 C-319.47 1028.58 -323.8 1027.82 -330.61 1023.5 C-335.64 1018.6 -338.34 1013.53 -338.54 1006.44 C-338.24 1001.04 -337.4 997.29 -333.28 993.51 C-327.29 988.74 -321.97 986.98 -314.29 986.63 C-309.19 986.33 -304.41 985.71 -299.44 984.6 C-296 983.92 -292.56 983.65 -289.08 983.38 C-286.98 983.24 -286.98 983.24 -285.04 982.13 C-283.11 981.78 -281.17 981.48 -279.23 981.19 C-278.06 981.02 -276.88 980.84 -275.67 980.66 C-273.4 980.33 -271.13 980 -268.86 979.7 C-262.18 978.75 -255.72 977.37 -249.2 975.66 C-244.45 974.43 -239.69 973.47 -234.86 972.63 C-228.72 971.55 -222.88 969.97 -216.96 968.04 C-213.65 967.01 -210.35 966.26 -206.95 965.62 C-204.79 965.06 -203 964.18 -201.04 963.13 C-201.34 962.31 -201.64 961.5 -201.95 960.66 C-203.18 956.69 -203.89 952.79 -204.54 948.69 C-205.21 944.6 -205.9 940.63 -207.05 936.64 C-208.2 932.57 -208.82 928.56 -209.42 924.38 C-210.44 917.57 -211.69 910.85 -213.17 904.13 C-214.47 898.2 -215.44 892.46 -215.84 886.39 C-216.09 883.62 -216.77 881.01 -217.51 878.34 C-219.25 871.19 -220.05 863.84 -220.54 856.5 C-220.88 851.59 -221.57 846.89 -222.51 842.06 C-224.22 832.77 -225.16 823.47 -225.65 814.05 C-225.97 808.44 -226.71 802.95 -227.58 797.4 C-228.15 793.39 -228.37 789.39 -228.51 785.34 C-229.22 782.41 -230.62 781.77 -233.04 780.13 C-233.04 779.47 -233.04 778.81 -233.04 778.13 C-233.83 777.82 -234.61 777.51 -235.42 777.19 C-238.04 776.13 -238.04 776.13 -240.04 775.13 C-240.04 774.47 -240.04 773.81 -240.04 773.13 C-241.03 773.13 -242.02 773.13 -243.04 773.13 C-243.04 772.47 -243.04 771.81 -243.04 771.13 C-243.83 770.82 -244.61 770.51 -245.42 770.19 C-248.04 769.13 -248.04 769.13 -250.04 768.13 C-250.04 767.47 -250.04 766.81 -250.04 766.13 C-251.08 765.79 -251.08 765.79 -252.13 765.45 C-255.78 763.8 -258.62 761.56 -261.73 759.07 C-265.69 755.8 -265.69 755.8 -270.04 753.13 C-270.04 752.47 -270.04 751.81 -270.04 751.13 C-270.83 750.82 -271.61 750.51 -272.42 750.19 C-275.04 749.13 -275.04 749.13 -277.04 748.13 C-277.04 747.47 -277.04 746.81 -277.04 746.13 C-277.61 745.86 -278.17 745.59 -278.75 745.32 C-281.2 744.05 -283.48 742.64 -285.79 741.13 C-286.59 740.61 -287.39 740.1 -288.22 739.57 C-289.12 738.86 -289.12 738.86 -290.04 738.13 C-290.04 737.47 -290.04 736.81 -290.04 736.13 C-290.58 735.88 -291.12 735.63 -291.67 735.38 C-294.63 733.82 -297.34 732.1 -300.04 730.13 C-300.04 729.47 -300.04 728.81 -300.04 728.13 C-300.7 727.94 -301.36 727.76 -302.04 727.57 C-305.72 725.81 -308.29 723.43 -311.28 720.69 C-312.97 719.06 -312.97 719.06 -315.04 718.13 C-315.04 717.47 -315.04 716.81 -315.04 716.13 C-315.62 715.86 -316.19 715.59 -316.78 715.32 C-319.12 714.09 -321.17 712.7 -323.29 711.13 C-324 710.61 -324.71 710.1 -325.44 709.57 C-326.23 708.86 -326.23 708.86 -327.04 708.13 C-327.04 707.47 -327.04 706.81 -327.04 706.13 C-327.66 705.82 -328.28 705.51 -328.92 705.19 C-330.29 704.5 -331.67 703.82 -333.04 703.13 C-333.04 702.47 -333.04 701.81 -333.04 701.13 C-333.86 700.77 -333.86 700.77 -334.69 700.41 C-337.68 698.79 -340.16 696.78 -342.79 694.63 C-343.78 693.84 -344.76 693.04 -345.78 692.22 C-346.9 691.19 -346.9 691.19 -348.04 690.13 C-348.04 689.47 -348.04 688.81 -348.04 688.13 C-348.7 688.13 -349.36 688.13 -350.04 688.13 C-350.04 687.47 -350.04 686.81 -350.04 686.13 C-350.62 685.87 -351.2 685.61 -351.79 685.35 C-354.24 684.02 -356.05 682.5 -358.11 680.63 C-360.38 678.57 -362.48 676.84 -365.04 675.13 C-365.04 674.47 -365.04 673.81 -365.04 673.13 C-365.68 672.86 -366.32 672.59 -366.98 672.32 C-369.04 671.13 -369.04 671.13 -370.04 668.13 C-375.09 670.72 -378.68 674.5 -382.61 678.5 C-383.27 679.16 -383.93 679.82 -384.61 680.5 C-387.36 683.29 -389.96 686.02 -392.38 689.11 C-392.93 689.77 -393.48 690.44 -394.04 691.13 C-394.7 691.13 -395.36 691.13 -396.04 691.13 C-396.3 691.71 -396.56 692.29 -396.83 692.89 C-398.14 695.3 -399.59 696.98 -401.49 698.95 C-402.15 699.65 -402.82 700.35 -403.5 701.07 C-404.55 702.15 -404.55 702.15 -405.61 703.25 C-406.99 704.69 -408.36 706.13 -409.74 707.57 C-410.35 708.21 -410.96 708.84 -411.59 709.5 C-413.13 711.08 -413.13 711.08 -414.04 713.13 C-414.7 713.13 -415.36 713.13 -416.04 713.13 C-416.31 713.7 -416.58 714.27 -416.86 714.86 C-418.09 717.21 -419.47 719.25 -421.04 721.38 C-421.82 722.44 -421.82 722.44 -422.61 723.52 C-423.08 724.05 -423.56 724.58 -424.04 725.13 C-424.7 725.13 -425.36 725.13 -426.04 725.13 C-426.29 725.68 -426.53 726.24 -426.78 726.81 C-428.3 729.61 -430.17 731.82 -432.23 734.25 C-436 738.77 -439.4 743.41 -442.63 748.33 C-443.33 749.22 -443.33 749.22 -444.04 750.13 C-444.7 750.13 -445.36 750.13 -446.04 750.13 C-446.31 750.7 -446.58 751.27 -446.86 751.86 C-448.09 754.21 -449.47 756.32 -450.98 758.5 C-451.55 759.32 -452.11 760.14 -452.7 760.99 C-453.29 761.84 -453.87 762.69 -454.48 763.57 C-455.65 765.25 -456.81 766.94 -457.98 768.63 C-458.52 769.41 -459.06 770.19 -459.62 771 C-460.76 772.7 -461.81 774.46 -462.83 776.23 C-463.23 776.85 -463.63 777.48 -464.04 778.13 C-464.7 778.13 -465.36 778.13 -466.04 778.13 C-466.16 778.71 -466.28 779.3 -466.4 779.9 C-467.08 782.25 -467.97 783.8 -469.34 785.82 C-469.8 786.51 -470.26 787.2 -470.74 787.91 C-471.23 788.65 -471.72 789.38 -472.23 790.13 C-476.06 795.92 -479.53 801.68 -482.51 807.97 C-484.08 811.2 -485.75 814.35 -487.46 817.51 C-491.1 824.26 -494.41 830.92 -497.04 838.13 C-497.71 839.8 -498.37 841.46 -499.04 843.13 C-499.37 843.96 -499.7 844.78 -500.04 845.63 C-500.71 847.29 -501.39 848.95 -502.08 850.59 C-508.82 866.83 -511.11 883.29 -511.17 900.75 C-511.17 901.64 -511.18 902.52 -511.18 903.43 C-511.16 912.57 -510.27 920.56 -507.04 929.13 C-506.77 929.93 -506.49 930.74 -506.21 931.57 C-501.76 943.78 -493.09 955.22 -482.04 962.13 C-482.04 962.79 -482.04 963.45 -482.04 964.13 C-480.97 964.52 -480.97 964.52 -479.88 964.93 C-476.94 966.17 -474.43 967.69 -471.73 969.38 C-464.52 973.66 -456.92 976.34 -449.04 979.13 C-448.26 979.47 -447.48 979.82 -446.68 980.17 C-442.67 981.63 -438.53 982.36 -434.36 983.19 C-432.64 983.53 -430.93 983.88 -429.22 984.23 C-428.09 984.45 -428.09 984.45 -426.94 984.68 C-425.04 985.13 -425.04 985.13 -423.04 986.13 C-421.18 986.38 -419.31 986.59 -417.44 986.78 C-416.31 986.9 -415.18 987.02 -414.02 987.14 C-411.64 987.38 -409.27 987.62 -406.89 987.85 C-400.46 988.53 -394.97 989.51 -389.04 992.13 C-389.04 992.79 -389.04 993.45 -389.04 994.13 C-388.05 994.46 -387.06 994.79 -386.04 995.13 C-386.04 995.79 -386.04 996.45 -386.04 997.13 C-385.38 997.13 -384.72 997.13 -384.04 997.13 C-380.49 1002.61 -380.31 1007.8 -381.04 1014.13 C-382.54 1017.82 -382.54 1017.82 -384.04 1020.13 C-384.7 1020.13 -385.36 1020.13 -386.04 1020.13 C-386.39 1021 -386.39 1021 -386.73 1021.88 C-388.49 1024.9 -390.05 1026.28 -393.04 1028.13 C-410.33 1031.81 -430.31 1026.61 -447.04 1022.13 C-448.28 1021.82 -449.52 1021.51 -450.8 1021.19 C-457.08 1019.61 -463.1 1017.94 -468.94 1015.13 C-471.25 1014.03 -473.6 1013.11 -475.98 1012.19 C-481.17 1010.15 -486.09 1007.68 -491.04 1005.13 C-492.38 1004.46 -493.71 1003.79 -495.04 1003.13 C-495.04 1002.47 -495.04 1001.81 -495.04 1001.13 C-495.63 1001.01 -496.22 1000.89 -496.83 1000.77 C-500.49 999.71 -503.24 997.4 -506.29 995.19 C-506.94 994.74 -507.59 994.28 -508.26 993.81 C-509.9 992.64 -511.48 991.39 -513.04 990.13 C-513.04 989.47 -513.04 988.81 -513.04 988.13 C-513.7 988.13 -514.36 988.13 -515.04 988.13 C-515.04 987.47 -515.04 986.81 -515.04 986.13 C-515.62 985.88 -516.2 985.63 -516.79 985.38 C-519.37 983.95 -521.11 982.35 -523.04 980.13 C-523.04 979.47 -523.04 978.81 -523.04 978.13 C-523.7 978.13 -524.36 978.13 -525.04 978.13 C-526.49 976.39 -527.85 974.59 -529.17 972.75 C-529.89 971.76 -530.62 970.76 -531.37 969.73 C-533.04 967.13 -533.04 967.13 -533.04 965.13 C-533.7 965.13 -534.36 965.13 -535.04 965.13 C-536.52 962.18 -537.99 959.23 -539.46 956.28 C-540.35 954.51 -541.25 952.75 -542.19 951.01 C-544.98 945.83 -546.59 940.43 -548.21 934.79 C-548.79 932.23 -548.79 932.23 -550.04 931.13 C-552.79 920.31 -553.5 909.74 -553.38 898.61 C-553.36 896.17 -553.36 893.73 -553.37 891.29 C-553.35 883.66 -553.09 876.53 -551.04 869.13 C-550.84 867.59 -550.66 866.05 -550.54 864.5 C-549.97 858.69 -548.2 853.53 -546.04 848.13 C-545.58 846.54 -545.12 844.94 -544.67 843.34 C-540.46 828.42 -540.46 828.42 -537.02 822.04 C-535.98 820.01 -535.21 817.96 -534.42 815.82 C-529.3 802.81 -521.95 790.63 -514.54 778.83 C-514.09 778.12 -513.65 777.42 -513.2 776.69 C-512.61 775.77 -512.61 775.77 -512.01 774.82 C-510.89 772.98 -510.89 772.98 -510.04 770.13 C-509.38 770.13 -508.72 770.13 -508.04 770.13 C-507.86 769.26 -507.86 769.26 -507.67 768.38 C-507.04 766.11 -506.16 764.2 -505.04 762.13 C-504.38 762.13 -503.72 762.13 -503.04 762.13 C-502.73 761.15 -502.73 761.15 -502.41 760.16 C-500.51 755.95 -497.87 752.42 -495.17 748.69 C-494.11 747.21 -493.05 745.74 -491.99 744.26 C-491.23 743.21 -491.23 743.21 -490.46 742.14 C-489.18 740.32 -487.98 738.47 -486.79 736.59 C-486.21 735.78 -485.64 734.97 -485.04 734.13 C-484.38 734.13 -483.72 734.13 -483.04 734.13 C-482.71 732.81 -482.38 731.49 -482.04 730.13 C-481.38 730.13 -480.72 730.13 -480.04 730.13 C-479.84 729.45 -479.63 728.77 -479.41 728.06 C-477.6 724.17 -475.02 721.37 -472.17 718.19 C-467.69 713.17 -467.69 713.17 -463.79 707.69 C-462.92 706.42 -462.92 706.42 -462.04 705.13 C-461.38 705.13 -460.72 705.13 -460.04 705.13 C-459.64 704.26 -459.64 704.26 -459.23 703.38 C-458.02 701.07 -456.74 699.11 -455.04 697.13 C-454.38 697.13 -453.72 697.13 -453.04 697.13 C-452.69 696.32 -452.69 696.32 -452.33 695.49 C-450.7 692.5 -448.69 690.02 -446.54 687.38 C-445.35 685.9 -445.35 685.9 -444.14 684.4 C-443.45 683.65 -442.76 682.9 -442.04 682.13 C-441.38 682.13 -440.72 682.13 -440.04 682.13 C-439.64 681.17 -439.64 681.17 -439.23 680.19 C-438.04 678.13 -438.04 678.13 -435.04 677.13 C-433.99 675.28 -433.99 675.28 -433.04 673.13 C-431.54 670.88 -431.54 670.88 -430.04 669.13 C-429.38 669.13 -428.72 669.13 -428.04 669.13 C-428.04 668.47 -428.04 667.81 -428.04 667.13 C-427.38 667.13 -426.72 667.13 -426.04 667.13 C-425.71 666.14 -425.38 665.15 -425.04 664.13 C-424.38 664.13 -423.72 664.13 -423.04 664.13 C-422.8 663.56 -422.56 662.98 -422.31 662.39 C-420.82 659.73 -419.1 658.05 -416.88 655.98 C-416.07 655.2 -415.26 654.42 -414.42 653.62 C-412.71 652 -410.99 650.38 -409.26 648.77 C-408.05 647.61 -408.05 647.61 -406.81 646.41 C-406.07 645.71 -405.32 645.01 -404.55 644.29 C-402.79 642.22 -402.79 642.22 -403.11 639.58 C-404.13 636.9 -405.13 635.6 -407.21 633.65 C-407.83 633.04 -408.46 632.44 -409.11 631.81 C-410.1 630.89 -410.1 630.89 -411.11 629.94 C-412.42 628.7 -413.72 627.46 -415.02 626.21 C-415.89 625.4 -415.89 625.4 -416.78 624.56 C-418.04 623.13 -418.04 623.13 -418.04 621.13 C-418.7 621.13 -419.36 621.13 -420.04 621.13 C-421.67 619.75 -421.67 619.75 -423.04 618.13 C-423.04 617.47 -423.04 616.81 -423.04 616.13 C-423.7 616.13 -424.36 616.13 -425.04 616.13 C-426.67 614.48 -426.67 614.48 -428.48 612.32 C-431.02 609.3 -431.02 609.3 -433.77 606.49 C-435.04 605.13 -435.04 605.13 -435.04 603.13 C-435.7 603.13 -436.36 603.13 -437.04 603.13 C-438.63 601.56 -438.63 601.56 -440.42 599.44 C-441.04 598.71 -441.65 597.99 -442.29 597.23 C-443.16 596.19 -443.16 596.19 -444.04 595.13 C-444.85 594.18 -445.65 593.23 -446.48 592.25 C-448.04 590.13 -448.04 590.13 -448.04 588.13 C-448.7 588.13 -449.36 588.13 -450.04 588.13 C-455.04 582.65 -455.04 582.65 -455.04 580.13 C-455.7 580.13 -456.36 580.13 -457.04 580.13 C-457.04 579.47 -457.04 578.81 -457.04 578.13 C-458.26 578.42 -459.48 578.71 -460.73 579 C-485.85 584.51 -508.2 582.36 -530.36 568.7 C-532.29 567.38 -532.29 567.38 -535.04 565.13 C-535.04 564.47 -535.04 563.81 -535.04 563.13 C-535.81 562.86 -536.57 562.59 -537.36 562.32 C-539.93 561.18 -541.31 560.32 -543.04 558.13 C-543.04 557.47 -543.04 556.81 -543.04 556.13 C-543.7 556.13 -544.36 556.13 -545.04 556.13 C-548.04 552.67 -548.04 552.67 -548.04 550.13 C-548.7 550.13 -549.36 550.13 -550.04 550.13 C-562.99 528.6 -568.22 507.97 -562.04 483.13 C-559.26 473.09 -553.92 462.06 -547.04 454.13 C-546.38 454.13 -545.72 454.13 -545.04 454.13 C-544.78 453.53 -544.51 452.93 -544.23 452.32 C-543.04 450.13 -543.04 450.13 -541.43 448.75 C-539.82 447.23 -539.82 447.23 -540.08 445.15 C-540.28 444.42 -540.47 443.69 -540.67 442.94 C-540.88 442.14 -541.09 441.35 -541.3 440.52 C-542.19 437.67 -543.24 434.92 -544.33 432.14 C-545.32 429.36 -545.92 426.55 -546.51 423.65 C-546.9 421.84 -547.32 420.03 -547.76 418.23 C-556.25 383.87 -553.17 350.56 -537.04 319.13 C-536.38 317.8 -535.71 316.46 -535.04 315.13 C-534.38 315.13 -533.72 315.13 -533.04 315.13 C-532.8 314.43 -532.55 313.73 -532.29 313 C-530.87 309.73 -529.17 306.99 -527.04 304.13 C-526.38 304.13 -525.72 304.13 -525.04 304.13 C-524.82 303.41 -524.59 302.7 -524.36 301.96 C-522.76 298.52 -520.74 296.46 -518.04 293.82 C-516.71 292.49 -516.71 292.49 -515.36 291.14 C-513.04 289.13 -513.04 289.13 -511.04 289.13 C-511.04 288.47 -511.04 287.81 -511.04 287.13 C-507.58 284.13 -507.58 284.13 -505.04 284.13 C-505.04 283.47 -505.04 282.81 -505.04 282.13 C-503.62 280.84 -503.62 280.84 -501.73 279.5 C-501.12 279.06 -500.5 278.61 -499.87 278.15 C-498.04 277.13 -498.04 277.13 -495.04 277.13 C-495.04 276.47 -495.04 275.81 -495.04 275.13 C-487.72 270.73 -480.68 266.68 -472.53 263.98 C-470.23 263.19 -468.11 262.25 -465.92 261.19 C-455.6 256.47 -442.43 252.4 -431.11 251.63 C-427.95 251.41 -425.01 250.91 -421.94 250.18 C-417.29 249.13 -412.68 248.48 -407.94 248.02 C-407.09 247.93 -406.23 247.85 -405.35 247.76 C-395.79 246.9 -386.24 246.86 -376.64 246.92 C-373.62 246.94 -370.61 246.94 -367.59 246.94 C-365.65 246.95 -363.71 246.95 -361.77 246.96 C-360.88 246.96 -359.99 246.96 -359.07 246.96 C-354.61 247 -350.45 247.3 -346.04 248.13 C-343.99 248.32 -341.93 248.49 -339.88 248.63 C-338.74 248.71 -337.6 248.79 -336.42 248.88 C-334.03 249.05 -331.65 249.21 -329.26 249.38 C-328.12 249.46 -326.99 249.54 -325.81 249.63 C-324.78 249.7 -323.74 249.77 -322.68 249.85 C-320.04 250.13 -320.04 250.13 -317.04 251.13 C-315.07 251.26 -313.09 251.36 -311.11 251.44 C-304.02 251.89 -297.26 253.15 -290.33 254.67 C-285.34 255.75 -280.44 256.48 -275.35 256.89 C-270.29 257.42 -265.4 258.72 -260.54 260.19 C-257.84 260.92 -255.72 261.29 -252.98 261.5 C-247.57 262.01 -242.54 263.66 -237.35 265.22 C-234.72 265.94 -232.31 266.47 -229.61 266.75 C-224.84 267.26 -220.55 268.6 -216.04 270.19 C-213 271.23 -213 271.23 -209.54 271.63 C-206.14 272.12 -203.29 273.02 -200.04 274.13 C-197.06 274.85 -194.05 275.5 -191.04 276.13 C-190.92 275.1 -190.8 274.07 -190.67 273 C-190.1 269.46 -189.2 266.52 -188.04 263.13 C-187.55 261.19 -187.08 259.26 -186.61 257.32 C-185.55 253.03 -184.36 248.88 -182.92 244.71 C-181.78 241.35 -180.72 237.96 -179.67 234.57 C-179.46 233.89 -179.25 233.21 -179.03 232.5 C-177.92 228.94 -176.81 225.38 -175.72 221.82 C-172.01 209.81 -172.01 209.81 -169.79 204.18 C-168.77 201.38 -167.95 198.54 -167.11 195.69 C-165.73 191.16 -164.17 186.94 -162.16 182.66 C-160.73 179.41 -159.52 176.09 -158.29 172.75 C-153.71 160.36 -148.93 148.02 -142.35 136.54 C-140.61 133.31 -139.35 129.97 -138.05 126.55 C-136.68 123.24 -134.93 120.21 -133.15 117.11 C-131.89 114.86 -130.91 112.56 -130.04 110.13 C-129.38 110.13 -128.72 110.13 -128.04 110.13 C-127.88 109.03 -127.88 109.03 -127.72 107.9 C-127 104.94 -125.99 103.22 -124.23 100.75 C-120.76 95.75 -117.69 90.63 -115.04 85.13 C-114.38 85.13 -113.72 85.13 -113.04 85.13 C-112.69 84.1 -112.69 84.1 -112.33 83.06 C-110.78 79.52 -108.74 76.46 -106.54 73.32 C-106.14 72.72 -105.74 72.12 -105.32 71.51 C-104.28 70.01 -103.17 68.56 -102.04 67.13 C-101.38 67.13 -100.72 67.13 -100.04 67.13 C-99.67 66.05 -99.67 66.05 -99.29 64.95 C-97.92 61.85 -96.25 59.62 -94.11 57 C-93.42 56.16 -92.73 55.31 -92.02 54.43 C-88.75 50.61 -88.75 50.61 -87.04 49.13 C-86.38 49.13 -85.72 49.13 -85.04 49.13 C-85.04 48.47 -85.04 47.81 -85.04 47.13 C-84.38 47.13 -83.72 47.13 -83.04 47.13 C-82.71 46.14 -82.38 45.15 -82.04 44.13 C-81.38 44.13 -80.72 44.13 -80.04 44.13 C-80.04 43.47 -80.04 42.81 -80.04 42.13 C-79.38 42.13 -78.72 42.13 -78.04 42.13 C-77.71 41.14 -77.38 40.15 -77.04 39.13 C-76.38 39.13 -75.72 39.13 -75.04 39.13 C-75.04 38.47 -75.04 37.81 -75.04 37.13 C-72.93 35.18 -72.93 35.18 -70.17 33 C-69.26 32.28 -68.36 31.56 -67.43 30.81 C-65.04 29.13 -65.04 29.13 -63.04 29.13 C-63.04 28.47 -63.04 27.81 -63.04 27.13 C-62.05 27.13 -61.06 27.13 -60.04 27.13 C-60.04 26.47 -60.04 25.81 -60.04 25.13 C-57.48 22.83 -56.57 22.13 -53.04 22.13 C-53.04 21.47 -53.04 20.81 -53.04 20.13 C-50.93 18.95 -48.82 17.78 -46.7 16.61 C-45.02 15.67 -43.35 14.71 -41.7 13.71 C-35.67 10.15 -29.44 7.65 -22.86 5.32 C-21.59 4.86 -21.59 4.86 -20.3 4.4 C-15.18 2.64 -10.43 1.7 -5.04 1.13 C-3.51 -0.4 -2.13 0 0 0 Z M357.96 246.13 C357.96 246.79 357.96 247.45 357.96 248.13 C357.3 248.13 356.64 248.13 355.96 248.13 C348.65 256.94 348.16 267.14 348.96 278.13 C350.68 287.74 356.78 295.77 363.96 302.13 C364.62 302.13 365.28 302.13 365.96 302.13 C365.96 302.79 365.96 303.45 365.96 304.13 C376.45 309.99 388.18 311.22 399.89 308.43 C402.12 307.51 403.97 306.48 405.96 305.13 C406.62 304.72 407.29 304.3 407.98 303.88 C415.51 298.8 422.42 290.98 424.96 282.13 C425.44 278.72 425.53 275.38 425.52 271.94 C425.52 271.02 425.52 270.09 425.52 269.14 C425.33 261.2 423.51 255.72 418.96 249.13 C417.97 247.64 417.97 247.64 416.96 246.13 C416.3 246.13 415.64 246.13 414.96 246.13 C414.46 244.64 414.46 244.64 413.96 243.13 C413.3 243.13 412.64 243.13 411.96 243.13 C411.96 242.47 411.96 241.81 411.96 241.13 C410.44 239.86 410.44 239.86 408.46 238.69 C407.48 238.08 407.48 238.08 406.49 237.45 C390.17 228.96 369.85 231.08 357.96 246.13 Z M-408.04 291.13 C-409.32 291.25 -410.6 291.37 -411.92 291.49 C-419.51 292.44 -426.95 293.86 -434.42 295.5 C-435.34 295.7 -436.25 295.9 -437.19 296.1 C-442.45 297.3 -447.17 298.91 -452.04 301.21 C-454.04 302.13 -454.04 302.13 -457.18 303.17 C-465.84 306.06 -474.58 310.9 -482.04 316.13 C-482.04 316.79 -482.04 317.45 -482.04 318.13 C-482.63 318.4 -483.21 318.67 -483.81 318.95 C-496.58 325.71 -504.09 340.14 -509.04 353.13 C-514.87 373.69 -512.6 395.82 -507.04 416.13 C-506.74 417.27 -506.43 418.42 -506.12 419.59 C-505.44 422.11 -504.75 424.62 -504.04 427.13 C-502.78 427.12 -501.51 427.11 -500.2 427.09 C-470.15 426.89 -470.15 426.89 -459.04 432.13 C-457.4 432.74 -455.76 433.34 -454.11 433.94 C-447.48 436.59 -440.89 440.25 -435.85 445.35 C-434.23 447.36 -434.23 447.36 -432.04 447.13 C-431.71 448.12 -431.38 449.11 -431.04 450.13 C-430.38 450.13 -429.72 450.13 -429.04 450.13 C-428.78 450.7 -428.52 451.28 -428.25 451.87 C-426.97 454.28 -425.47 456.16 -423.73 458.25 C-413.67 471.09 -409.16 486.28 -409.5 502.38 C-409.55 504.46 -409.54 506.53 -409.54 508.61 C-409.59 519.74 -411.86 528.49 -416.92 538.32 C-417.25 538.98 -417.57 539.64 -417.91 540.31 C-419.65 543.75 -421.52 546.89 -423.8 549.99 C-426.24 552.76 -426.24 552.76 -426.04 555.13 C-425.38 555.13 -424.72 555.13 -424.04 555.13 C-423.78 555.7 -423.51 556.27 -423.23 556.86 C-422 559.21 -420.62 561.25 -419.04 563.38 C-418.53 564.09 -418.01 564.79 -417.48 565.52 C-417.01 566.05 -416.53 566.58 -416.04 567.13 C-415.38 567.13 -414.72 567.13 -414.04 567.13 C-413.78 567.72 -413.52 568.32 -413.24 568.93 C-412 571.21 -410.74 572.6 -408.86 574.38 C-404.16 578.94 -399.68 583.68 -396.04 589.13 C-395.38 589.13 -394.72 589.13 -394.04 589.13 C-393.55 590.61 -393.55 590.61 -393.04 592.13 C-392.38 592.13 -391.72 592.13 -391.04 592.13 C-391.04 592.79 -391.04 593.45 -391.04 594.13 C-390.38 594.13 -389.72 594.13 -389.04 594.13 C-388.78 594.72 -388.51 595.31 -388.24 595.91 C-386.21 599.67 -383.11 602.39 -380.11 605.38 C-379.47 606.03 -378.84 606.68 -378.19 607.35 C-377.27 608.27 -377.27 608.27 -376.33 609.21 C-375.77 609.77 -375.21 610.33 -374.64 610.91 C-372.98 612.43 -372.98 612.43 -370.04 612.13 C-367.32 609.82 -367.32 609.82 -365.04 607.13 C-365.04 606.47 -365.04 605.81 -365.04 605.13 C-364.5 604.9 -363.96 604.68 -363.4 604.45 C-360.31 602.72 -358 600.48 -355.42 598.07 C-350.24 593.23 -350.24 593.23 -348.04 592.13 C-348.04 591.47 -348.04 590.81 -348.04 590.13 C-347.5 589.89 -346.96 589.66 -346.4 589.41 C-343.41 587.79 -340.93 585.78 -338.29 583.63 C-337.31 582.84 -336.33 582.04 -335.31 581.22 C-334.56 580.53 -333.82 579.84 -333.04 579.13 C-333.04 578.47 -333.04 577.81 -333.04 577.13 C-331.04 576.13 -329.04 575.13 -327.04 574.13 C-327.04 573.47 -327.04 572.81 -327.04 572.13 C-326.47 571.86 -325.9 571.59 -325.31 571.32 C-322.97 570.09 -320.92 568.7 -318.79 567.13 C-318.09 566.61 -317.38 566.1 -316.65 565.57 C-316.12 565.09 -315.59 564.62 -315.04 564.13 C-315.04 563.47 -315.04 562.81 -315.04 562.13 C-314.5 561.88 -313.96 561.63 -313.4 561.38 C-310.52 559.85 -307.95 558.04 -305.29 556.13 C-304.31 555.43 -303.33 554.73 -302.31 554 C-301.56 553.39 -300.82 552.77 -300.04 552.13 C-300.04 551.47 -300.04 550.81 -300.04 550.13 C-299.51 549.88 -298.97 549.63 -298.42 549.38 C-295.46 547.82 -292.75 546.1 -290.04 544.13 C-290.04 543.47 -290.04 542.81 -290.04 542.13 C-289.36 541.9 -288.67 541.68 -287.96 541.45 C-284.31 539.8 -281.47 537.56 -278.36 535.07 C-272.24 530.23 -272.24 530.23 -270.04 529.13 C-270.04 528.47 -270.04 527.81 -270.04 527.13 C-269.47 526.85 -268.89 526.57 -268.29 526.29 C-264.59 524.38 -261.23 521.98 -257.79 519.63 C-257.05 519.13 -256.3 518.63 -255.54 518.12 C-254.83 517.64 -254.13 517.16 -253.4 516.66 C-252.44 516 -252.44 516 -251.45 515.33 C-250.99 514.94 -250.52 514.54 -250.04 514.13 C-250.04 513.47 -250.04 512.81 -250.04 512.13 C-249.26 511.82 -248.48 511.51 -247.67 511.19 C-245.12 510.2 -245.12 510.2 -243.04 509.13 C-243.04 508.47 -243.04 507.81 -243.04 507.13 C-242.05 507.13 -241.06 507.13 -240.04 507.13 C-240.04 506.47 -240.04 505.81 -240.04 505.13 C-239.26 504.82 -238.48 504.51 -237.67 504.19 C-235.12 503.2 -235.12 503.2 -233.04 502.13 C-233.04 501.47 -233.04 500.81 -233.04 500.13 C-232.09 499.67 -232.09 499.67 -231.11 499.19 C-229.11 498.29 -229.11 498.29 -228.04 497.13 C-227.83 495.62 -227.67 494.1 -227.54 492.58 C-227.46 491.65 -227.38 490.73 -227.29 489.77 C-227.21 488.8 -227.13 487.82 -227.04 486.82 C-226.88 484.9 -226.71 482.99 -226.54 481.08 C-226.47 480.23 -226.4 479.37 -226.33 478.5 C-226.06 476.29 -225.59 474.27 -225.04 472.13 C-224.87 469.69 -224.73 467.26 -224.61 464.82 C-224.06 454.95 -222.87 445.22 -220.98 435.5 C-220.03 430.5 -219.67 425.54 -219.32 420.47 C-218.75 413.58 -217.8 406.68 -215.98 400 C-215.24 396.94 -214.87 394.42 -214.67 391.32 C-214.21 385.31 -212.93 379.56 -211.63 373.69 C-210.18 367.01 -209.05 360.31 -208.08 353.54 C-207.41 348.92 -206.34 344.62 -205.04 340.13 C-204.48 337.31 -204.01 334.47 -203.54 331.63 C-202.68 326.33 -201.61 321.27 -200.04 316.13 C-205.72 313.29 -211.43 312.09 -217.64 310.88 C-221.04 310.13 -221.04 310.13 -223.88 309.16 C-228.08 307.79 -232.33 307.01 -236.67 306.19 C-242.32 305.1 -247.92 303.97 -253.48 302.5 C-258.75 301.12 -264.03 300.3 -269.43 299.56 C-272.04 299.13 -272.04 299.13 -274.04 298.13 C-275.68 297.86 -277.31 297.64 -278.96 297.45 C-279.95 297.32 -280.94 297.2 -281.96 297.07 C-284.03 296.82 -286.1 296.57 -288.18 296.32 C-292.77 295.75 -297.27 295.14 -301.77 294.07 C-305.97 293.08 -310.05 292.74 -314.36 292.57 C-321.63 292.25 -321.63 292.25 -323.76 291.65 C-327.22 290.86 -330.71 290.75 -334.24 290.57 C-335.07 290.53 -335.9 290.49 -336.75 290.45 C-346.71 289.99 -356.68 289.98 -366.64 290 C-369.87 290 -373.1 290 -376.32 289.99 C-386.94 289.99 -397.47 290.1 -408.04 291.13 Z M460.96 295.13 C460.3 296.69 459.66 298.25 459.02 299.82 C458.66 300.69 458.3 301.56 457.93 302.45 C457 305.01 456.41 307.45 455.96 310.13 C455.3 310.13 454.64 310.13 453.96 310.13 C453.48 311.08 453.01 312.03 452.52 313 C448.95 319.26 443.83 324.88 438.17 329.31 C437.44 329.91 436.71 330.51 435.96 331.13 C435.96 331.79 435.96 332.45 435.96 333.13 C435.4 333.39 434.85 333.65 434.29 333.92 C431.64 335.29 429.17 336.87 426.64 338.44 C416.51 344.36 405.76 347.92 393.96 348.13 C392.83 348.16 391.71 348.18 390.55 348.21 C380.23 348.33 370.82 348.38 361.28 344.15 C358.75 342.99 358.75 342.99 355.14 341.94 C350.42 340.23 346.47 337.19 342.43 334.27 C339.93 332.46 337.91 331.11 334.96 330.13 C334.96 329.47 334.96 328.81 334.96 328.13 C332.62 325.46 332.62 325.46 329.96 323.13 C329.3 323.13 328.64 323.13 327.96 323.13 C327.73 322.61 327.5 322.1 327.27 321.57 C325.95 318.97 325.95 318.97 323.77 316.25 C319.69 310.7 316.93 304.31 313.96 298.13 C312.04 298.53 312.04 298.53 310.08 298.94 C306.67 299.63 303.25 300.25 299.81 300.79 C291.11 302.15 282.7 303.85 274.22 306.22 C269.27 307.6 264.27 308.68 259.22 309.66 C258.31 309.83 257.4 310.01 256.46 310.19 C255.62 310.35 254.78 310.5 253.92 310.66 C251.96 310.95 251.96 310.95 250.96 312.13 C248.74 312.66 246.51 313.09 244.28 313.53 C241.95 314.13 240.06 314.98 237.96 316.13 C238.5 322.52 239.69 328.53 241.19 334.76 C242.17 339.07 242.87 343.4 243.53 347.77 C243.84 350.14 243.84 350.14 244.96 352.13 C245.3 353.89 245.61 355.67 245.89 357.44 C246.07 358.51 246.24 359.57 246.42 360.67 C247.13 365.28 247.82 369.9 248.49 374.51 C248.82 377.1 248.82 377.1 249.96 379.13 C250.14 380.81 250.28 382.5 250.39 384.19 C250.75 388.51 251.41 392.56 252.42 396.76 C254.18 404.51 255.1 412.28 255.67 420.19 C256.04 423.98 256.75 427.65 257.48 431.38 C258.14 435.18 258.44 438.98 258.71 442.82 C258.89 445.29 258.89 445.29 259.96 448.13 C260.14 450.59 260.28 453.04 260.39 455.5 C260.72 461.7 261.45 467.7 262.49 473.83 C263.18 478.74 263.4 483.67 263.61 488.62 C263.98 492.36 264.7 495.59 265.96 499.13 C268.39 501.02 269.85 502.13 272.96 502.13 C272.96 502.79 272.96 503.45 272.96 504.13 C274.9 505.72 274.9 505.72 277.33 507.25 C278.14 507.79 278.95 508.33 279.79 508.89 C281.83 510.3 281.83 510.3 283.96 510.13 C283.96 510.79 283.96 511.45 283.96 512.13 C287.18 514.45 287.18 514.45 290.96 515.13 C290.96 515.79 290.96 516.45 290.96 517.13 C292.52 518.53 292.52 518.53 294.57 519.91 C295.32 520.44 296.08 520.98 296.85 521.52 C297.65 522.07 298.45 522.62 299.27 523.19 C300.05 523.75 300.84 524.3 301.65 524.87 C306.05 527.98 306.05 527.98 310.96 530.13 C310.96 530.79 310.96 531.45 310.96 532.13 C312.69 533.57 314.49 534.94 316.33 536.25 C317.33 536.98 318.33 537.7 319.35 538.45 C321.72 540.31 321.72 540.31 323.96 540.13 C323.96 540.79 323.96 541.45 323.96 542.13 C325.55 543.43 327.21 544.64 328.89 545.82 C333.45 549.03 337.85 552.37 342.18 555.88 C343.87 557.32 343.87 557.32 345.96 557.13 C345.96 557.79 345.96 558.45 345.96 559.13 C348.13 561.17 348.13 561.17 350.83 563.25 C351.74 563.98 352.64 564.7 353.57 565.45 C355.74 567.32 355.74 567.32 357.96 567.13 C357.96 567.79 357.96 568.45 357.96 569.13 C360.59 571.53 360.59 571.53 363.96 572.13 C363.96 572.79 363.96 573.45 363.96 574.13 C366.13 576.17 366.13 576.17 368.83 578.25 C369.74 578.98 370.64 579.7 371.57 580.45 C373.74 582.32 373.74 582.32 375.96 582.13 C375.96 582.79 375.96 583.45 375.96 584.13 C377.57 585.8 377.57 585.8 379.64 587.5 C380.37 588.12 381.1 588.74 381.85 589.38 C382.54 589.95 383.24 590.53 383.96 591.13 C384.9 591.93 385.85 592.74 386.83 593.57 C388.78 595.33 388.78 595.33 390.96 595.13 C390.96 595.79 390.96 596.45 390.96 597.13 C391.62 597.13 392.28 597.13 392.96 597.13 C392.96 597.79 392.96 598.45 392.96 599.13 C394.63 600.91 394.63 600.91 396.77 602.69 C397.48 603.31 398.18 603.93 398.91 604.57 C400.97 606.31 400.97 606.31 403.96 607.13 C403.96 607.79 403.96 608.45 403.96 609.13 C405.92 610.77 405.92 610.77 407.96 612.13 C411.35 610.66 413.6 608.75 416.21 606.13 C416.91 605.43 417.62 604.73 418.35 604 C420.17 602.29 420.17 602.29 419.96 600.13 C420.95 599.8 421.94 599.47 422.96 599.13 C422.96 598.47 422.96 597.81 422.96 597.13 C423.62 597.13 424.28 597.13 424.96 597.13 C424.96 596.47 424.96 595.81 424.96 595.13 C425.95 594.8 426.94 594.47 427.96 594.13 C427.96 593.47 427.96 592.81 427.96 592.13 C428.62 592.13 429.28 592.13 429.96 592.13 C431.66 590.44 431.66 590.44 433.39 588.32 C436.8 584.28 436.8 584.28 438.68 582.49 C440.18 581.2 440.18 581.2 439.96 579.13 C440.62 579.13 441.28 579.13 441.96 579.13 C443.56 577.58 443.56 577.58 445.21 575.57 C445.82 574.84 446.43 574.12 447.07 573.37 C448 572.26 448 572.26 448.96 571.13 C449.84 570.13 449.84 570.13 450.75 569.11 C451.56 568.19 451.56 568.19 452.39 567.25 C452.89 566.7 453.38 566.15 453.89 565.57 C455.15 564.16 455.15 564.16 454.96 562.13 C455.62 562.13 456.28 562.13 456.96 562.13 C459 559.96 459 559.96 461.08 557.25 C461.8 556.35 462.53 555.44 463.28 554.51 C465.15 552.34 465.15 552.34 464.96 550.13 C465.62 550.13 466.28 550.13 466.96 550.13 C469.35 547.49 469.35 547.49 469.96 544.13 C470.62 544.13 471.28 544.13 471.96 544.13 C473.54 542.41 473.54 542.41 475.08 540.25 C475.62 539.54 476.16 538.82 476.71 538.07 C478.13 536.23 478.13 536.23 477.96 534.13 C478.62 534.13 479.28 534.13 479.96 534.13 C481.31 532.55 481.31 532.55 482.64 530.47 C483.44 529.29 483.44 529.29 484.25 528.08 C484.81 527.23 485.37 526.38 485.96 525.5 C487.13 523.75 488.31 522 489.49 520.25 C490.08 519.38 490.67 518.51 491.27 517.61 C493.57 514.23 495.94 510.89 498.33 507.57 C498.74 507 499.14 506.44 499.56 505.85 C501.34 503.37 503.12 500.9 504.92 498.43 C508.52 493.41 511.61 488.29 514.5 482.82 C515.84 480.35 517.27 478 518.77 475.63 C523.09 468.54 526.4 460.91 529.89 453.39 C530.92 451.21 531.98 449.07 533.07 446.93 C537.59 437.96 540.56 428.5 543.16 418.83 C543.96 416.13 543.96 416.13 544.96 415.13 C545.31 413.41 545.61 411.68 545.89 409.95 C546.15 408.34 546.15 408.34 546.42 406.69 C546.59 405.56 546.77 404.42 546.96 403.25 C547.13 402.16 547.31 401.06 547.49 399.93 C549.21 389.13 550.43 379.2 548.83 368.32 C548.69 367.36 548.55 366.41 548.41 365.42 C546.46 352.89 542.37 342.5 534.96 332.13 C534.43 331.37 533.91 330.61 533.37 329.82 C532.9 329.27 532.44 328.71 531.96 328.13 C531.3 328.13 530.64 328.13 529.96 328.13 C529.69 327.49 529.42 326.85 529.14 326.19 C528.07 323.8 528.07 323.8 524.96 323.13 C524.96 322.47 524.96 321.81 524.96 321.13 C523.57 319.87 523.57 319.87 521.74 318.67 C520.71 317.96 520.71 317.96 519.66 317.24 C518.93 316.75 518.2 316.26 517.46 315.75 C516.41 315.03 516.41 315.03 515.35 314.29 C507.06 308.65 498.22 304.88 488.96 301.13 C488.28 300.84 487.6 300.55 486.9 300.25 C478.78 296.92 469.73 294.85 460.96 295.13 Z M-164.04 330.13 C-164.25 332.18 -164.46 334.23 -164.64 336.28 C-165.11 339.61 -165.99 342.71 -166.92 345.94 C-168.91 352.91 -170.05 359.9 -171.01 367.08 C-171.53 370.91 -172.12 374.64 -173.1 378.39 C-173.89 381.5 -174.37 384.32 -174.61 387.5 C-174.94 391.93 -174.94 391.93 -176.04 394.13 C-176.41 396.61 -176.75 399.08 -177.04 401.57 C-177.91 408.73 -177.91 408.73 -179.04 412.13 C-179.24 414.13 -179.41 416.13 -179.54 418.13 C-179.77 421.4 -180 424.01 -181.04 427.13 C-181.24 428.49 -181.41 429.85 -181.54 431.22 C-181.63 432 -181.71 432.79 -181.79 433.6 C-181.88 434.41 -181.96 435.23 -182.04 436.07 C-182.21 437.68 -182.38 439.29 -182.54 440.91 C-182.62 441.62 -182.69 442.33 -182.76 443.07 C-183.04 445.13 -183.04 445.13 -183.56 447.12 C-184.08 449.27 -184.25 451.25 -184.36 453.46 C-184.4 454.26 -184.45 455.06 -184.49 455.88 C-184.53 456.7 -184.57 457.53 -184.61 458.38 C-184.65 459.22 -184.69 460.06 -184.74 460.93 C-184.84 462.99 -184.94 465.06 -185.04 467.13 C-179.86 466.64 -176.31 463.96 -172.11 461.13 C-170.58 460.12 -169.06 459.12 -167.53 458.11 C-166.78 457.61 -166.02 457.1 -165.24 456.58 C-162.11 454.51 -158.96 452.47 -155.79 450.44 C-155.23 450.08 -154.67 449.72 -154.09 449.35 C-136.67 438.19 -136.67 438.19 -128.04 434.13 C-128.04 433.47 -128.04 432.81 -128.04 432.13 C-127.24 432 -127.24 432 -126.42 431.86 C-123.25 430.89 -120.83 429.23 -118.04 427.44 C-112.81 424.13 -107.47 421.27 -101.89 418.56 C-98.28 416.74 -94.85 414.68 -91.41 412.56 C-88.42 410.75 -85.37 409.08 -82.31 407.41 C-79.92 406.06 -77.58 404.63 -75.23 403.19 C-70.76 400.49 -66.17 398.14 -61.48 395.85 C-56.52 393.37 -51.63 390.74 -46.74 388.11 C-46.05 387.74 -45.35 387.37 -44.63 386.98 C-43.7 386.48 -43.7 386.48 -42.76 385.97 C-41.04 385.13 -41.04 385.13 -38.04 384.13 C-38.04 383.47 -38.04 382.81 -38.04 382.13 C-36.93 381.97 -36.93 381.97 -35.79 381.82 C-32.87 381.09 -31.31 380.06 -29.04 378.13 C-30.6 375.03 -33.64 374.55 -36.73 373.38 C-38.11 372.85 -39.48 372.31 -40.85 371.78 C-41.9 371.37 -41.9 371.37 -42.97 370.95 C-46.13 369.7 -49.24 368.35 -52.36 367 C-57.89 364.62 -63.44 362.34 -69.04 360.13 C-71.61 359.11 -74.17 358.09 -76.73 357.07 C-77.95 356.58 -79.17 356.09 -80.43 355.59 C-85.06 353.72 -89.64 351.78 -94.17 349.69 C-98.64 347.76 -103.33 346.5 -107.98 345.1 C-111.45 344 -114.7 342.56 -118.04 341.13 C-120.14 340.47 -122.25 339.82 -124.36 339.19 C-128.33 338 -132.16 336.74 -135.98 335.13 C-141.27 332.92 -146.72 331.45 -152.24 329.96 C-155.04 329.13 -155.04 329.13 -156.04 328.13 C-160.54 327.66 -160.54 327.66 -164.04 330.13 Z M191.33 328.88 C190.37 329.16 190.37 329.16 189.39 329.45 C185.6 330.58 181.89 331.82 178.21 333.28 C173.74 334.96 169.18 336.37 164.64 337.85 C160.94 339.09 160.94 339.09 157.38 340.66 C154.16 342.04 151 343.09 147.64 344.07 C142.89 345.5 138.32 347.1 133.74 349 C130.21 350.43 126.65 351.75 123.08 353.07 C116.3 355.59 109.62 358.3 102.96 361.13 C100.98 361.94 99 362.75 97.02 363.57 C92.75 365.34 88.57 367.23 84.39 369.19 C79.36 371.56 74.31 373.49 69 375.17 C68.33 375.49 67.65 375.8 66.96 376.13 C66.63 377.12 66.3 378.11 65.96 379.13 C68.58 380.8 71.12 382.2 73.99 383.4 C78.92 385.48 83.61 388.01 88.33 390.5 C89.67 391.21 89.67 391.21 91.04 391.93 C96.04 394.56 101 397.24 105.93 400 C108.08 401.2 110.23 402.38 112.39 403.57 C115.57 405.32 118.67 407.17 121.77 409.07 C125.28 411.19 128.82 413.09 132.52 414.88 C143.89 420.46 154.65 427.28 165.4 433.95 C168.92 436.12 172.47 438.24 176.02 440.35 C185.29 445.88 194.46 451.56 203.57 457.35 C207.56 459.88 211.56 462.39 215.58 464.88 C216.6 465.51 217.63 466.15 218.68 466.8 C220.66 468.21 220.66 468.21 221.96 468.13 C221.98 466.89 222 465.65 222.02 464.38 C222.03 463.34 222.03 463.34 222.05 462.27 C222.03 460.16 222.03 460.16 221.48 458.31 C220.74 455.22 220.68 452.17 220.52 449 C220.22 443.77 219.63 438.76 218.49 433.65 C217 426.69 216.01 419.66 215.58 412.57 C215.11 406.09 213.79 399.84 212.41 393.51 C211.52 389.32 210.82 385.22 210.46 380.95 C210.09 376.81 209.14 373.12 207.96 369.13 C207.22 365.16 206.67 361.16 206.1 357.16 C205.38 352.34 204.33 347.81 202.96 343.13 C202.26 339.84 201.68 336.52 201.1 333.21 C200.78 331.5 200.37 329.81 199.96 328.13 C196.83 326.57 194.61 327.91 191.33 328.88 Z M8.21 403.57 C7.47 403.92 6.73 404.28 5.97 404.64 C-0.17 407.62 -6.19 410.81 -12.19 414.03 C-17.05 416.64 -21.95 419 -27.04 421.13 C-27.04 421.79 -27.04 422.45 -27.04 423.13 C-27.72 423.22 -28.39 423.31 -29.09 423.41 C-32.8 424.31 -35.99 425.94 -39.36 427.69 C-40 428.02 -40.65 428.35 -41.31 428.69 C-42.89 429.5 -44.47 430.31 -46.04 431.13 C-46.04 431.79 -46.04 432.45 -46.04 433.13 C-46.61 433.25 -47.17 433.37 -47.76 433.49 C-54.8 435.45 -61.19 439.78 -67.37 443.57 C-72.13 446.35 -77.09 448.73 -82.04 451.13 C-82.04 451.79 -82.04 452.45 -82.04 453.13 C-82.62 453.25 -83.2 453.37 -83.8 453.5 C-91.33 455.61 -98.24 461.09 -104.81 465.17 C-107.56 466.84 -110.33 468.38 -113.17 469.88 C-121.75 474.47 -129.86 479.88 -138.04 485.13 C-139.38 485.98 -140.72 486.84 -142.06 487.7 C-147.85 491.4 -153.61 495.14 -159.28 499.04 C-161.04 500.13 -161.04 500.13 -164.04 501.13 C-164.04 501.79 -164.04 502.45 -164.04 503.13 C-164.73 503.36 -165.41 503.58 -166.11 503.82 C-169.24 505.22 -171.68 506.94 -174.4 509.01 C-176.04 510.13 -176.04 510.13 -179.04 511.13 C-179.04 511.79 -179.04 512.45 -179.04 513.13 C-180.13 513.53 -180.13 513.53 -181.23 513.94 C-186.3 515.99 -186.3 515.99 -190.15 519.69 C-191.47 523.3 -191.5 526.93 -191.64 530.73 C-191.7 531.99 -191.7 531.99 -191.76 533.28 C-191.89 535.96 -192 538.64 -192.11 541.32 C-192.22 543.98 -192.34 546.64 -192.46 549.3 C-192.54 550.96 -192.61 552.61 -192.68 554.27 C-192.71 555.03 -192.75 555.8 -192.78 556.59 C-192.81 557.25 -192.83 557.91 -192.86 558.59 C-193.02 560.76 -193.28 562.92 -193.55 565.07 C-194.25 571.23 -194.19 577.38 -194.19 583.57 C-194.19 584.91 -194.2 586.25 -194.2 587.58 C-194.21 591.2 -194.21 594.81 -194.21 598.42 C-194.21 600.69 -194.22 602.97 -194.22 605.24 C-194.23 613.2 -194.23 621.17 -194.23 629.14 C-194.23 636.49 -194.24 643.85 -194.26 651.2 C-194.27 657.56 -194.27 663.93 -194.27 670.29 C-194.27 674.07 -194.28 677.85 -194.29 681.62 C-194.33 698.22 -193.96 714.67 -192.52 731.22 C-191.81 739.52 -191.56 747.85 -191.33 756.18 C-190.99 758.53 -190.3 760.11 -189.04 762.13 C-186.89 763.68 -184.82 765.05 -182.54 766.38 C-181.95 766.74 -181.36 767.11 -180.74 767.48 C-177.61 769.49 -177.61 769.49 -174.04 770.13 C-174.04 770.79 -174.04 771.45 -174.04 772.13 C-173.32 772.52 -172.6 772.9 -171.85 773.3 C-162.99 778.07 -162.99 778.07 -159.54 780.5 C-157.12 782.4 -157.12 782.4 -154.04 782.13 C-154.04 782.79 -154.04 783.45 -154.04 784.13 C-153.37 784.49 -152.69 784.86 -151.99 785.23 C-145.57 788.7 -139.28 792.33 -133.04 796.13 C-131.32 797.17 -129.59 798.21 -127.86 799.25 C-127.1 799.71 -126.34 800.17 -125.56 800.64 C-123.65 801.77 -121.72 802.88 -119.79 803.97 C-115.56 806.38 -111.43 808.95 -107.29 811.5 C-101.44 815.11 -95.55 818.58 -89.48 821.81 C-86.96 823.18 -84.5 824.64 -82.04 826.13 C-77.74 828.75 -73.34 831.17 -68.9 833.56 C-65.88 835.22 -62.9 836.95 -59.92 838.69 C-57.96 839.84 -56 840.98 -54.04 842.13 C-53.17 842.64 -52.29 843.16 -51.39 843.68 C-50.6 844.14 -49.8 844.6 -48.98 845.07 C-48.29 845.47 -47.6 845.87 -46.88 846.28 C-44.93 847.34 -44.93 847.34 -42.04 847.13 C-42.04 847.79 -42.04 848.45 -42.04 849.13 C-40.93 849.67 -39.82 850.2 -38.67 850.75 C-34.42 852.86 -30.44 855.31 -26.44 857.86 C-23.95 859.18 -21.82 859.72 -19.04 860.13 C-19.04 860.79 -19.04 861.45 -19.04 862.13 C-18.35 862.47 -17.66 862.81 -16.95 863.16 C-12.29 865.47 -7.65 867.78 -3.08 870.27 C-2.42 870.63 -1.76 870.99 -1.08 871.36 C0.21 872.07 1.5 872.78 2.79 873.5 C6.16 875.34 9.13 876.63 12.96 877.13 C12.96 877.79 12.96 878.45 12.96 879.13 C19.95 880.65 23.76 879.45 30.02 876.19 C30.84 875.78 31.67 875.37 32.52 874.95 C35.01 873.7 37.48 872.42 39.96 871.13 C40.68 870.75 41.4 870.38 42.15 869.99 C48.14 866.88 54.07 863.64 59.96 860.32 C62.88 858.68 65.81 857.29 68.92 856.02 C73.69 853.93 78.31 851.49 82.96 849.13 C82.96 848.47 82.96 847.81 82.96 847.13 C83.52 847.01 84.08 846.89 84.66 846.77 C87.21 846.06 89.35 845.03 91.71 843.82 C92.57 843.37 93.44 842.93 94.34 842.47 C95.2 842.03 96.07 841.59 96.96 841.13 C98.5 840.36 100.04 839.59 101.58 838.82 C102.69 838.26 103.81 837.7 104.96 837.13 C104.96 836.47 104.96 835.81 104.96 835.13 C106.61 834.8 108.26 834.47 109.96 834.13 C109.96 833.47 109.96 832.81 109.96 832.13 C110.48 832.04 111 831.95 111.54 831.86 C114.82 830.87 117.59 829.17 120.52 827.44 C121.77 826.71 123.03 825.98 124.29 825.25 C124.91 824.89 125.53 824.53 126.17 824.16 C128.66 822.73 131.18 821.36 133.71 820 C137.99 817.68 142.19 815.24 146.36 812.7 C148.73 811.26 151.12 809.84 153.5 808.41 C159.42 804.86 165.29 801.22 171.14 797.57 C172.18 796.92 173.22 796.27 174.3 795.61 C178.61 792.91 182.9 790.23 187.01 787.23 C189.96 785.13 189.96 785.13 192.96 784.13 C192.96 783.47 192.96 782.81 192.96 782.13 C193.47 782.06 193.99 781.98 194.53 781.91 C198.72 780.56 202.18 777.82 205.74 775.29 C209.13 772.9 212.3 770.89 216.17 769.37 C220.7 767.42 224.25 765.36 226.96 761.13 C229.98 751.76 229.72 741.44 229.9 731.67 C229.96 729 230.03 726.32 230.11 723.65 C230.39 714.26 230.61 704.87 230.74 695.48 C230.84 688.95 231.07 682.45 231.47 675.93 C232.11 665.13 232.11 654.34 232.09 643.52 C232.08 640.13 232.09 636.74 232.09 633.36 C232.09 622.9 231.97 612.48 231.33 602.04 C230.94 595.4 230.8 588.77 230.71 582.12 C230.57 572.68 230.31 563.26 230.03 553.82 C229.96 551.27 229.91 548.71 229.86 546.15 C230.38 529.55 230.38 529.55 223.95 515.3 C220.9 512.95 217.64 511.47 214.07 510.06 C210.32 508.41 207.1 505.94 203.77 503.57 C198.76 499.96 198.76 499.96 192.96 498.13 C192.96 497.47 192.96 496.81 192.96 496.13 C191.51 495.32 191.51 495.32 190.03 494.49 C185.5 491.9 181.11 489.11 176.71 486.32 C175.45 485.53 175.45 485.53 174.18 484.72 C170.56 482.43 166.95 480.14 163.38 477.79 C161.93 476.84 161.93 476.84 160.46 475.88 C159.64 475.34 158.83 474.8 157.99 474.24 C155.9 472.89 155.9 472.89 152.96 473.13 C152.96 472.47 152.96 471.81 152.96 471.13 C152.28 470.77 151.6 470.4 150.9 470.03 C144.48 466.56 138.19 462.93 131.96 459.13 C127 456.13 122.04 453.14 117.02 450.25 C115.95 449.64 115.95 449.64 114.87 449.01 C112.85 447.92 112.85 447.92 109.96 448.13 C109.96 447.47 109.96 446.81 109.96 446.13 C108.31 445.8 106.66 445.47 104.96 445.13 C104.96 444.47 104.96 443.81 104.96 443.13 C104.26 442.79 103.57 442.45 102.86 442.1 C91.79 436.62 80.74 431.06 70.3 424.45 C67.88 423.09 65.4 422.03 62.83 420.96 C59.52 419.5 56.38 417.73 53.21 416 C44.58 411.37 35.77 407.16 26.88 403.04 C25.53 402.4 24.18 401.73 22.85 401.04 C17.54 398.5 13.07 401.17 8.21 403.57 Z M-517.6 480.95 C-523.18 488.32 -524.61 494.84 -524.54 503.94 C-524.54 504.92 -524.53 505.91 -524.53 506.92 C-524.35 514.03 -523.56 519.42 -519.04 525.13 C-518.46 525.91 -517.88 526.69 -517.28 527.5 C-512.71 533.15 -507.53 536.9 -501.04 540.13 C-499.94 540.69 -499.94 540.69 -498.81 541.26 C-494.86 542.5 -491.1 542.55 -486.98 542.57 C-485.72 542.57 -485.72 542.57 -484.44 542.58 C-477.08 542.44 -471.51 540.74 -465.04 537.13 C-465.04 536.47 -465.04 535.81 -465.04 535.13 C-464.18 534.77 -464.18 534.77 -463.3 534.4 C-460.61 532.89 -459.01 531.14 -456.98 528.82 C-456.31 528.06 -455.64 527.3 -454.95 526.52 C-447.82 517.57 -447.24 508.25 -448.04 497.13 C-450.03 486.08 -457.38 477.79 -466.04 471.13 C-483.13 459.43 -505.12 466.34 -517.6 480.95 Z M268.96 549.13 C268.93 552.42 268.91 555.71 268.89 559 C268.88 559.92 268.88 560.84 268.87 561.79 C268.86 562.7 268.86 563.62 268.86 564.56 C268.85 565.39 268.85 566.21 268.84 567.07 C268.94 569.61 269.16 572.05 269.45 574.57 C270.05 580.43 270.1 586.24 270.08 592.12 C270.09 593.28 270.09 594.43 270.09 595.62 C270.09 599.42 270.09 603.21 270.09 607 C270.09 609.66 270.09 612.31 270.09 614.96 C270.09 620.51 270.09 626.06 270.09 631.6 C270.08 637.99 270.08 644.38 270.09 650.78 C270.09 656.29 270.09 661.8 270.09 667.31 C270.09 670.59 270.09 673.87 270.09 677.15 C270.09 680.82 270.09 684.48 270.08 688.14 C270.09 689.21 270.09 690.28 270.09 691.38 C270.07 696.99 269.82 702.49 269.18 708.06 C268.9 710.62 268.84 713.13 268.86 715.7 C268.86 716.61 268.86 717.53 268.87 718.47 C268.88 719.39 268.88 720.31 268.89 721.25 C268.9 722.21 268.9 723.17 268.91 724.15 C268.92 726.48 268.93 728.8 268.96 731.13 C270.21 730.19 271.46 729.25 272.72 728.31 C273.42 727.79 274.11 727.26 274.83 726.72 C276.81 725.24 278.79 723.75 280.77 722.25 C294.06 712.29 294.06 712.29 299.64 708.75 C300.79 707.95 300.79 707.95 301.96 707.13 C301.96 706.47 301.96 705.81 301.96 705.13 C302.76 704.76 302.76 704.76 303.58 704.38 C306.54 702.82 309.25 701.1 311.96 699.13 C311.96 698.47 311.96 697.81 311.96 697.13 C313.96 696.13 315.96 695.13 317.96 694.13 C317.96 693.47 317.96 692.81 317.96 692.13 C318.82 691.73 318.82 691.73 319.7 691.32 C322.01 690.1 323.95 688.72 326.02 687.13 C328.3 685.38 330.56 683.73 332.96 682.13 C332.96 681.47 332.96 680.81 332.96 680.13 C333.81 679.73 333.81 679.73 334.69 679.32 C337.03 678.09 339.08 676.7 341.21 675.13 C341.91 674.61 342.62 674.1 343.35 673.57 C343.88 673.09 344.41 672.62 344.96 672.13 C344.96 671.47 344.96 670.81 344.96 670.13 C345.53 669.86 346.11 669.59 346.7 669.31 C348.99 668.11 350.95 666.75 353.02 665.19 C353.69 664.69 354.36 664.18 355.05 663.66 C356.83 662.23 358.45 660.85 359.96 659.13 C359.96 658.47 359.96 657.81 359.96 657.13 C360.5 656.9 361.04 656.68 361.6 656.45 C364.69 654.72 367 652.48 369.58 650.07 C374.76 645.23 374.76 645.23 376.96 644.13 C376.96 643.47 376.96 642.81 376.96 642.13 C377.62 642.13 378.28 642.13 378.96 642.13 C378.96 640.81 378.96 639.49 378.96 638.13 C378.3 638.13 377.64 638.13 376.96 638.13 C376.96 637.47 376.96 636.81 376.96 636.13 C375.26 634.61 373.49 633.16 371.71 631.75 C368.9 629.54 366.22 627.4 363.72 624.84 C362.13 622.9 362.13 622.9 359.96 623.13 C359.96 622.47 359.96 621.81 359.96 621.13 C358.26 619.57 356.5 618.08 354.71 616.63 C353.73 615.84 352.76 615.04 351.75 614.22 C349.51 612.54 347.51 611.25 344.96 610.13 C344.96 609.47 344.96 608.81 344.96 608.13 C342.78 606.08 342.78 606.08 340.08 604 C339.18 603.28 338.27 602.56 337.34 601.81 C335.17 599.94 335.17 599.94 332.96 600.13 C332.96 599.47 332.96 598.81 332.96 598.13 C330.76 596.26 328.56 594.5 326.27 592.75 C325.01 591.79 323.76 590.82 322.51 589.86 C321.9 589.39 321.3 588.93 320.67 588.46 C319.13 587.26 317.62 586.02 316.12 584.78 C314.14 582.93 314.14 582.93 311.96 583.13 C311.96 582.47 311.96 581.81 311.96 581.13 C310.24 579.54 310.24 579.54 308.08 578 C307 577.2 307 577.2 305.9 576.37 C304.06 574.95 304.06 574.95 301.96 575.13 C301.96 574.47 301.96 573.81 301.96 573.13 C300.13 571.56 300.13 571.56 297.64 569.88 C296.66 569.18 295.67 568.48 294.65 567.76 C294.08 567.36 293.51 566.95 292.92 566.54 C288.9 563.66 284.93 560.7 280.96 557.75 C279.31 556.54 277.66 555.32 276.02 554.11 C275.31 553.58 274.6 553.06 273.87 552.51 C272.26 551.35 270.61 550.23 268.96 549.13 Z M-234.04 550.13 C-234.7 550.46 -235.36 550.79 -236.04 551.13 C-236.04 551.79 -236.04 552.45 -236.04 553.13 C-237.03 553.44 -237.03 553.44 -238.04 553.75 C-242.12 555.62 -245.73 558.11 -249.04 561.13 C-249.04 561.79 -249.04 562.45 -249.04 563.13 C-250.22 563.59 -250.22 563.59 -251.42 564.07 C-253.97 565.06 -253.97 565.06 -256.04 566.13 C-256.04 566.79 -256.04 567.45 -256.04 568.13 C-257.1 568.47 -257.1 568.47 -258.17 568.82 C-261.74 570.45 -264.08 572.56 -267.04 575.13 C-267.7 575.46 -268.36 575.79 -269.04 576.13 C-269.04 576.79 -269.04 577.45 -269.04 578.13 C-269.59 578.38 -270.13 578.62 -270.69 578.88 C-273.57 580.41 -276.14 582.22 -278.79 584.13 C-279.78 584.83 -280.76 585.53 -281.78 586.25 C-282.9 587.18 -282.9 587.18 -284.04 588.13 C-284.04 588.79 -284.04 589.45 -284.04 590.13 C-284.6 590.38 -285.16 590.63 -285.74 590.88 C-288.45 592.35 -290.61 594.1 -292.98 596.07 C-293.94 596.86 -294.9 597.65 -295.88 598.47 C-298.12 600.35 -300.35 602.24 -302.58 604.13 C-303.17 604.63 -303.76 605.13 -304.36 605.64 C-305.51 606.62 -306.66 607.6 -307.8 608.59 C-311.83 612.02 -311.83 612.02 -314.04 613.13 C-314.04 613.79 -314.04 614.45 -314.04 615.13 C-314.59 615.37 -315.13 615.6 -315.69 615.85 C-318.68 617.47 -321.16 619.48 -323.79 621.63 C-324.78 622.42 -325.76 623.22 -326.78 624.04 C-327.53 624.73 -328.27 625.42 -329.04 626.13 C-329.04 626.79 -329.04 627.45 -329.04 628.13 C-329.7 628.13 -330.36 628.13 -331.04 628.13 C-332.71 629.46 -332.71 629.46 -334.04 631.13 C-334.04 631.79 -334.04 632.45 -334.04 633.13 C-334.91 633.53 -334.91 633.53 -335.79 633.94 C-338.14 635.18 -340.1 636.32 -342.04 638.13 C-342.04 639.45 -342.04 640.77 -342.04 642.13 C-338.61 645.81 -338.61 645.81 -334.04 647.13 C-334.04 647.79 -334.04 648.45 -334.04 649.13 C-332.71 650.8 -332.71 650.8 -331.04 652.13 C-330.38 652.13 -329.72 652.13 -329.04 652.13 C-329.04 652.79 -329.04 653.45 -329.04 654.13 C-327.35 655.69 -325.59 657.18 -323.79 658.63 C-322.82 659.42 -321.85 660.22 -320.84 661.04 C-318.6 662.72 -316.6 664.01 -314.04 665.13 C-314.04 665.79 -314.04 666.45 -314.04 667.13 C-311.95 668.89 -309.85 670.55 -307.67 672.19 C-302.27 676.33 -297.12 680.62 -292.13 685.25 C-288.58 688.81 -288.58 688.81 -284.04 690.13 C-284.04 690.79 -284.04 691.45 -284.04 692.13 C-282.35 693.53 -280.59 694.85 -278.79 696.13 C-277.82 696.83 -276.85 697.53 -275.84 698.25 C-273.61 699.75 -271.48 701.02 -269.04 702.13 C-269.04 702.79 -269.04 703.45 -269.04 704.13 C-267.31 705.57 -265.51 706.94 -263.67 708.25 C-262.67 708.98 -261.67 709.7 -260.65 710.45 C-258.28 712.31 -258.28 712.31 -256.04 712.13 C-256.04 712.79 -256.04 713.45 -256.04 714.13 C-252.82 716.45 -252.82 716.45 -249.04 717.13 C-249.04 717.79 -249.04 718.45 -249.04 719.13 C-247.31 720.57 -245.51 721.94 -243.67 723.25 C-242.67 723.98 -241.67 724.7 -240.65 725.45 C-238.28 727.31 -238.28 727.31 -236.04 727.13 C-236.04 727.79 -236.04 728.45 -236.04 729.13 C-235.05 729.46 -234.06 729.79 -233.04 730.13 C-231.77 729.09 -231.77 729.09 -232 726.76 C-232.06 725.18 -232.06 725.18 -232.11 723.56 C-232.16 722.36 -232.2 721.16 -232.24 719.92 C-232.26 719.27 -232.28 718.62 -232.31 717.95 C-232.39 715.9 -232.46 713.84 -232.52 711.78 C-232.62 708.84 -232.72 705.89 -232.83 702.94 C-234.57 652.24 -233.76 601.82 -232.04 551.13 C-233.03 550.63 -233.03 550.63 -234.04 550.13 Z M-185.04 813.13 C-184.51 826.44 -184.51 826.44 -182.52 839.59 C-181.82 843.31 -181.56 847.05 -181.29 850.82 C-181.11 853.29 -181.11 853.29 -180.04 856.13 C-179.87 858 -179.73 859.88 -179.61 861.75 C-179.26 866.3 -178.61 870.54 -177.52 874.96 C-176.85 878.04 -176.56 881.14 -176.29 884.28 C-176.13 886.22 -176.13 886.22 -175.04 888.13 C-174.72 890 -174.44 891.88 -174.17 893.75 C-173.4 898.99 -172.49 904.18 -171.48 909.38 C-170.65 913.66 -169.89 917.91 -169.48 922.25 C-169.07 925.88 -168.26 928.71 -167.04 932.13 C-165.64 937.49 -164.78 942.75 -164.39 948.28 C-164.18 950.37 -164.18 950.37 -162.04 952.13 C-157.03 952.88 -153.45 951.19 -148.95 949.27 C-145.69 947.99 -142.42 947.05 -139.04 946.13 C-134 944.74 -129.23 943.09 -124.41 941.06 C-121.96 940.1 -119.51 939.35 -116.98 938.63 C-112.82 937.43 -108.99 935.85 -105.07 934.04 C-102.46 932.87 -99.77 932.02 -97.04 931.13 C-95.89 930.63 -94.73 930.14 -93.54 929.63 C-90.04 928.13 -90.04 928.13 -87.37 927.24 C-83.33 925.89 -79.38 924.37 -75.42 922.82 C-74.62 922.51 -73.83 922.19 -73.01 921.87 C-63.27 918.06 -53.71 914 -44.24 909.54 C-40.27 907.79 -36.23 906.4 -32.09 905.09 C-31.42 904.77 -30.74 904.45 -30.04 904.13 C-29.71 903.14 -29.38 902.15 -29.04 901.13 C-29.95 900.68 -30.86 900.23 -31.79 899.77 C-37.91 896.74 -43.97 893.67 -49.9 890.31 C-52.25 889.01 -54.64 887.82 -57.04 886.63 C-61.8 884.28 -66.43 881.74 -71.04 879.13 C-72.54 878.29 -74.04 877.46 -75.54 876.63 C-76.66 876.01 -76.66 876.01 -77.8 875.38 C-79.28 874.55 -80.77 873.73 -82.26 872.91 C-86.18 870.76 -90.04 868.53 -93.86 866.19 C-97.42 864.03 -101.03 862.12 -104.79 860.32 C-110.31 857.64 -115.36 854.47 -120.41 851.02 C-123.91 848.64 -123.91 848.64 -128.04 848.13 C-128.04 847.47 -128.04 846.81 -128.04 846.13 C-128.72 845.77 -129.4 845.4 -130.1 845.03 C-131.03 844.53 -131.96 844.02 -132.92 843.5 C-133.82 843.02 -134.73 842.53 -135.66 842.03 C-143.95 837.38 -151.98 832.31 -159.98 827.19 C-160.89 826.61 -161.81 826.03 -162.75 825.43 C-163.66 824.85 -164.57 824.26 -165.51 823.66 C-166.41 823.09 -167.32 822.52 -168.25 821.92 C-170.2 820.67 -172.14 819.41 -174.08 818.13 C-175.06 817.49 -176.04 816.85 -177.05 816.19 C-177.94 815.6 -178.82 815.02 -179.73 814.41 C-182.04 812.89 -182.04 812.89 -185.04 813.13 Z M215.84 815.21 C214.23 816.2 214.23 816.2 212.59 817.21 C211.42 817.93 210.25 818.66 209.08 819.38 C207.89 820.11 206.7 820.85 205.52 821.58 C194.53 828.36 183.58 835.2 172.73 842.21 C167.58 845.54 162.37 848.58 156.97 851.47 C153.42 853.42 149.97 855.52 146.52 857.63 C141.05 860.96 135.5 863.93 129.73 866.73 C126.14 868.54 122.73 870.6 119.3 872.7 C116.4 874.46 113.45 876.1 110.47 877.73 C107.42 879.43 104.41 881.19 101.39 882.94 C93.05 887.75 84.43 891.96 75.79 896.19 C75.08 896.54 74.37 896.89 73.63 897.25 C72.99 897.57 72.35 897.89 71.68 898.22 C69.6 899.32 67.76 900.62 65.96 902.13 C67.51 905.23 70.55 905.71 73.64 906.88 C75.02 907.41 76.39 907.95 77.77 908.48 C78.47 908.76 79.17 909.03 79.89 909.31 C83 910.54 86.07 911.86 89.14 913.19 C95.39 915.89 101.66 918.54 107.96 921.13 C109.68 921.84 109.68 921.84 111.44 922.56 C118.9 925.59 126.42 928.38 134.03 931.02 C138.38 932.53 142.54 934.24 146.71 936.2 C150.69 937.85 154.84 938.97 158.97 940.2 C161.96 941.13 161.96 941.13 165.39 942.63 C169.97 944.56 174.66 945.76 179.44 947.08 C183.36 948.25 187.06 949.73 190.82 951.31 C193.49 952.34 196.12 952.83 198.96 953.13 C203.35 938.37 203.35 938.37 205.75 923.21 C206.26 918.04 207.4 912.93 208.93 907.97 C210.19 903.26 210.83 898.58 211.46 893.75 C212.24 887.79 213.17 881.97 214.53 876.12 C215.08 873.54 215.3 871.01 215.46 868.38 C216.06 860.05 217.41 851.88 219.02 843.69 C220.05 838.22 220.4 832.75 220.71 827.2 C220.91 824.67 221.33 822.56 221.96 820.13 C222.02 818.71 222.04 817.3 222.02 815.88 C221.99 814.02 221.99 814.02 221.96 812.13 C219.82 812.13 217.56 814.15 215.84 815.21 Z M5.99 930.55 C3.36 931.92 0.78 933.07 -1.98 934.13 C-5.9 935.64 -9.68 937.34 -13.48 939.13 C-18.34 941.4 -23.2 943.31 -28.25 945.07 C-31.33 946.24 -34.26 947.59 -37.23 949 C-42.87 951.67 -48.59 953.88 -54.44 956.01 C-57.89 957.28 -61.22 958.61 -64.48 960.32 C-67.82 962.01 -70.98 963.17 -74.53 964.29 C-77.41 965.25 -80.22 966.34 -83.04 967.44 C-93.58 971.53 -104.25 975.23 -114.98 978.75 C-119.14 980.12 -123.2 981.56 -127.23 983.25 C-131.79 985.14 -136.4 986.28 -141.19 987.4 C-144.95 988.36 -148.45 989.68 -152.04 991.13 C-151.71 997.26 -151.06 1002.73 -148.93 1008.49 C-147.77 1011.96 -146.95 1015.51 -146.11 1019.07 C-144.81 1024.45 -143.23 1029.49 -141.04 1034.57 C-139.82 1037.71 -138.94 1040.88 -138.04 1044.13 C-136.65 1049.18 -135.01 1053.94 -132.98 1058.77 C-132.01 1061.21 -131.26 1063.66 -130.54 1066.19 C-129.37 1070.25 -127.85 1073.97 -126.07 1077.8 C-124.97 1080.29 -124.07 1082.81 -123.17 1085.38 C-120.87 1091.83 -117.96 1097.95 -115.04 1104.13 C-110.64 1113.71 -110.64 1113.71 -108.61 1118.57 C-106.29 1123.85 -103.65 1128.98 -101.04 1134.13 C-100.55 1135.14 -100.05 1136.15 -99.54 1137.19 C-98.16 1139.91 -96.66 1142.48 -95.04 1145.07 C-92.66 1149 -90.72 1152.85 -89.04 1157.13 C-88.38 1157.13 -87.72 1157.13 -87.04 1157.13 C-86.77 1157.86 -86.5 1158.58 -86.22 1159.33 C-82.75 1167.58 -76.83 1174.99 -71.73 1182.32 C-71.2 1183.08 -70.68 1183.85 -70.13 1184.64 C-69.63 1185.35 -69.13 1186.06 -68.62 1186.8 C-68.17 1187.44 -67.72 1188.08 -67.26 1188.74 C-66.86 1189.2 -66.46 1189.66 -66.04 1190.13 C-65.38 1190.13 -64.72 1190.13 -64.04 1190.13 C-63.78 1190.7 -63.51 1191.27 -63.23 1191.86 C-62 1194.21 -60.62 1196.25 -59.04 1198.38 C-58.53 1199.09 -58.01 1199.79 -57.48 1200.52 C-57.01 1201.05 -56.53 1201.58 -56.04 1202.13 C-55.38 1202.13 -54.72 1202.13 -54.04 1202.13 C-53.78 1202.77 -53.51 1203.41 -53.23 1204.07 C-52.16 1206.46 -52.16 1206.46 -49.04 1207.13 C-48.38 1208.46 -47.71 1209.8 -47.04 1211.13 C-46.05 1211.46 -45.06 1211.79 -44.04 1212.13 C-44.04 1212.79 -44.04 1213.45 -44.04 1214.13 C-42.06 1215.82 -40.07 1217.39 -37.98 1218.94 C-37.08 1219.62 -37.08 1219.62 -36.16 1220.31 C-34.98 1221.2 -33.79 1222.09 -32.6 1222.97 C-31.4 1223.86 -30.22 1224.77 -29.04 1225.69 C-23.84 1229.66 -17.95 1232.37 -12.04 1235.13 C-10.82 1235.71 -10.82 1235.71 -9.58 1236.29 C5.5 1242.88 21.08 1244.02 36.54 1238.15 C38.71 1237.18 40.83 1236.17 42.96 1235.13 C44.31 1234.54 45.66 1233.95 47.02 1233.38 C47.99 1232.97 48.96 1232.55 49.96 1232.13 C49.96 1231.47 49.96 1230.81 49.96 1230.13 C51.03 1229.73 51.03 1229.73 52.12 1229.32 C55 1228.11 57.59 1226.72 60.27 1225.13 C61.15 1224.61 62.03 1224.1 62.94 1223.57 C63.61 1223.09 64.27 1222.62 64.96 1222.13 C64.96 1221.47 64.96 1220.81 64.96 1220.13 C65.49 1219.88 66.03 1219.63 66.58 1219.38 C69.54 1217.82 72.25 1216.1 74.96 1214.13 C74.96 1213.47 74.96 1212.81 74.96 1212.13 C75.5 1211.89 76.04 1211.66 76.6 1211.41 C79.59 1209.79 82.07 1207.78 84.71 1205.63 C85.69 1204.84 86.67 1204.04 87.69 1203.22 C88.44 1202.53 89.18 1201.84 89.96 1201.13 C89.96 1200.47 89.96 1199.81 89.96 1199.13 C90.62 1199.13 91.28 1199.13 91.96 1199.13 C91.96 1198.47 91.96 1197.81 91.96 1197.13 C92.52 1196.89 93.08 1196.66 93.66 1196.41 C96.47 1194.84 98.43 1192.91 100.71 1190.63 C101.5 1189.84 102.3 1189.04 103.13 1188.22 C105.17 1186.34 105.17 1186.34 104.96 1184.13 C105.62 1184.13 106.28 1184.13 106.96 1184.13 C107.82 1182.37 107.82 1182.37 107.96 1180.13 C106.35 1177.88 106.35 1177.88 104.02 1175.69 C88.48 1159.21 83.24 1139.75 83.64 1117.69 C84.14 1105.5 87.85 1094.68 93.96 1084.13 C94.48 1083.19 95 1082.26 95.54 1081.3 C105.72 1064.18 122.65 1052.38 141.79 1047.39 C149.14 1045.84 157.72 1044.72 164.96 1047.13 C167.68 1047.36 170.21 1047.26 172.96 1047.13 C175.49 1044.59 175.67 1042.73 176.46 1039.25 C177.29 1035.55 178.26 1032.5 179.96 1029.13 C180.5 1027.16 180.99 1025.18 181.46 1023.19 C182.13 1020.28 182.79 1017.53 183.92 1014.76 C185.3 1011.25 186.14 1007.67 187.02 1004 C188.85 996.45 188.85 996.45 189.96 993.13 C189.63 992.47 189.3 991.81 188.96 991.13 C186.83 990.43 184.68 989.82 182.52 989.25 C177.35 987.86 172.44 986.2 167.5 984.13 C163.54 982.57 159.47 981.42 155.4 980.2 C149.51 978.37 143.74 976.25 137.96 974.13 C137.16 973.84 136.36 973.55 135.54 973.25 C132.49 972.13 129.5 970.93 126.52 969.63 C124 968.57 121.6 967.65 119.02 966.82 C107.79 963.16 96.82 958.75 85.96 954.13 C84.06 953.34 82.16 952.54 80.27 951.75 C79.28 951.34 78.3 950.93 77.29 950.51 C74.81 949.48 72.33 948.47 69.84 947.47 C62.3 944.42 54.97 941.21 47.73 937.47 C44.06 935.7 40.28 934.4 36.43 933.07 C33.01 931.77 30.09 930.01 26.96 928.13 C18.92 924.11 13.44 926.59 5.99 930.55 Z M140.96 1093.13 C140.96 1093.79 140.96 1094.45 140.96 1095.13 C140.38 1095.38 139.8 1095.62 139.21 1095.88 C136.63 1097.31 134.89 1098.91 132.96 1101.13 C132.96 1101.79 132.96 1102.45 132.96 1103.13 C132.3 1103.13 131.64 1103.13 130.96 1103.13 C130.96 1104.12 130.96 1105.11 130.96 1106.13 C130.3 1106.13 129.64 1106.13 128.96 1106.13 C125.18 1114 124.65 1121.51 124.96 1130.13 C125 1131.43 125.04 1132.73 125.08 1134.07 C125.83 1139.47 128.93 1143.72 131.96 1148.13 C133.01 1149.68 133.01 1149.68 134.08 1151.25 C141.05 1159.12 150.11 1163.58 160.42 1164.3 C171.38 1164.64 179.22 1161.86 187.96 1155.13 C190.59 1152.65 192.81 1150.04 194.96 1147.13 C195.44 1146.5 195.92 1145.88 196.42 1145.23 C202.04 1137.25 202.49 1128.49 200.96 1119.13 C200.89 1118 200.83 1116.86 200.77 1115.69 C198.92 1107.59 193.49 1100.22 186.96 1095.13 C186.3 1095.13 185.64 1095.13 184.96 1095.13 C184.96 1094.47 184.96 1093.81 184.96 1093.13 C183.97 1093.13 182.98 1093.13 181.96 1093.13 C181.96 1092.47 181.96 1091.81 181.96 1091.13 C169.13 1084.11 153.15 1086.1 140.96 1093.13 Z " fill="#000000" transform="translate(627.044921875,-0.12939453125)"/>
<path d="M0 0 C0.84 0.29 1.69 0.57 2.56 0.87 C13.86 4.75 25.14 10.22 35 17 C35 17.66 35 18.32 35 19 C36.18 19.46 36.18 19.46 37.38 19.94 C40 21 40 21 42 22 C42 22.66 42 23.32 42 24 C42.58 24.27 43.17 24.54 43.77 24.81 C46.03 26.01 47.81 27.34 49.75 29 C50.36 29.52 50.98 30.03 51.61 30.56 C53 32 53 32 53 34 C53.66 34 54.32 34 55 34 C56.69 35.64 56.69 35.64 58.56 37.81 C59.18 38.52 59.8 39.23 60.44 39.96 C62 42 62 42 63 45 C63.66 45 64.32 45 65 45 C68 49.38 68 49.38 68 52 C68.66 52 69.32 52 70 52 C90.87 80.97 97.61 118.29 92.4 153.19 C91.28 160.02 89.77 166.45 86.95 172.8 C86.05 174.89 85.39 176.94 84.75 179.12 C81.5 189.13 76.07 199.43 70 208 C69.34 208 68.68 208 68 208 C67.69 208.78 67.38 209.57 67.06 210.38 C66 213 66 213 65 215 C64.34 215 63.68 215 63 215 C62.73 215.58 62.46 216.17 62.19 216.77 C60.99 219.03 59.66 220.81 58 222.75 C57.48 223.36 56.97 223.98 56.44 224.61 C55 226 55 226 53 226 C53 226.66 53 227.32 53 228 C51.36 229.69 51.36 229.69 49.19 231.56 C48.48 232.18 47.77 232.8 47.04 233.44 C45 235 45 235 42 236 C42 236.66 42 237.32 42 238 C37.62 241 37.62 241 35 241 C35 241.66 35 242.32 35 243 C33.6 244.08 33.6 244.08 31.63 245.24 C30.92 245.67 30.2 246.09 29.46 246.53 C28.69 246.97 27.92 247.42 27.12 247.88 C26.35 248.33 25.57 248.78 24.77 249.25 C19.33 252.36 13.93 254.97 8 257 C6.64 257.52 5.29 258.04 3.94 258.56 C2.63 259.04 1.31 259.52 0 260 C-0.94 260.37 -0.94 260.37 -1.9 260.75 C-15.16 265.65 -28.6 266.3 -42.56 266.38 C-43.6 266.39 -43.6 266.39 -44.66 266.4 C-58.51 266.52 -71.87 264.59 -85 260 C-86.43 259.51 -86.43 259.51 -87.9 259.02 C-100.34 254.53 -112.8 248.51 -123 240 C-124.58 238.77 -126.16 237.54 -127.75 236.31 C-128.47 235.75 -129.18 235.19 -129.92 234.61 C-131.34 233.51 -132.79 232.45 -134.27 231.42 C-135.12 230.72 -135.12 230.72 -136 230 C-136 229.34 -136 228.68 -136 228 C-136.64 227.73 -137.28 227.46 -137.94 227.19 C-140 226 -140 226 -141 223 C-141.66 223 -142.32 223 -143 223 C-144.33 221.51 -145.59 219.96 -146.81 218.38 C-149.03 215.52 -151.22 212.76 -153.62 210.06 C-157.02 205.68 -159.47 200.92 -162 196 C-162.59 194.85 -163.19 193.71 -163.8 192.53 C-170.02 180.37 -175.61 168.07 -176.73 154.29 C-176.99 152.12 -177.45 150.15 -178.01 148.04 C-179.38 142.05 -179.29 136.12 -179.25 130 C-179.26 128.88 -179.27 127.75 -179.27 126.59 C-179.26 120.83 -178.96 115.52 -177.47 109.94 C-176.96 107.83 -176.74 105.79 -176.56 103.62 C-174.41 82.26 -161.66 59.57 -148.05 43.45 C-146 41.07 -146 41.07 -144.36 38.68 C-143.68 37.85 -143.68 37.85 -143 37 C-142.34 37 -141.68 37 -141 37 C-140.73 36.36 -140.46 35.72 -140.19 35.06 C-139 33 -139 33 -136 32 C-136 31.34 -136 30.68 -136 30 C-133.88 28.05 -133.88 28.05 -131.12 25.88 C-130.22 25.15 -129.32 24.43 -128.38 23.68 C-126 22 -126 22 -124 22 C-124 21.34 -124 20.68 -124 20 C-114.47 12.7 -104.15 7.27 -93 3 C-91.92 2.55 -91.92 2.55 -90.83 2.09 C-63.72 -9.21 -27.56 -10.61 0 0 Z M-92 47 C-93.73 47.9 -93.73 47.9 -95.5 48.81 C-103.9 53.59 -111.67 61.77 -118 69 C-118 69.66 -118 70.32 -118 71 C-118.66 71 -119.32 71 -120 71 C-122.32 74.22 -122.32 74.22 -123 78 C-123.66 78 -124.32 78 -125 78 C-138.11 102.52 -143.36 129.41 -136 156.71 C-133.2 165.64 -129.41 173.75 -125 182 C-124.34 182 -123.68 182 -123 182 C-122.69 182.78 -122.38 183.57 -122.06 184.38 C-121.07 186.92 -121.07 186.92 -120 189 C-119.34 189 -118.68 189 -118 189 C-117.73 189.59 -117.46 190.18 -117.19 190.8 C-115.99 193.02 -114.77 194.49 -112.99 196.28 C-112.39 196.87 -111.8 197.47 -111.19 198.08 C-110.26 199 -110.26 199 -109.31 199.94 C-108.41 200.85 -108.41 200.85 -107.49 201.78 C-100.15 209.09 -92.34 213.56 -83 218 C-82.24 218.38 -81.47 218.77 -80.68 219.16 C-74.38 222.21 -67.83 223.58 -61 225 C-60.31 225.17 -59.62 225.34 -58.91 225.52 C-53.5 226.84 -48.43 227.35 -42.88 227.31 C-41.64 227.31 -41.64 227.31 -40.38 227.3 C-32.64 227.15 -25.5 226 -18 224 C-16.79 223.68 -15.58 223.37 -14.34 223.04 C0.31 218.69 13.26 210.87 24 200 C24.53 199.48 25.06 198.97 25.61 198.43 C26.75 197.31 27.88 196.15 29 195 C29.6 194.44 30.2 193.89 30.81 193.31 C32.22 192.05 32.22 192.05 32 190 C32.66 190 33.32 190 34 190 C38.73 184.22 41.77 177.69 45 171 C45.32 170.39 45.64 169.78 45.98 169.15 C56.6 148.86 57.19 123.21 50.62 101.56 C46.91 90.57 41.16 79.13 34 70 C33.34 70 32.68 70 32 70 C31.75 69.44 31.5 68.89 31.25 68.31 C23.61 54.17 3.95 42.91 -11 38 C-15.31 36.84 -19.63 35.89 -24 35 C-24.69 34.83 -25.37 34.66 -26.08 34.49 C-31.49 33.17 -36.56 32.65 -42.12 32.69 C-43.36 32.69 -43.36 32.69 -44.62 32.7 C-61.39 33.02 -77.98 37.82 -92 47 Z " fill="#000000" transform="translate(688,510)"/>
</svg>
